<svg xmlns="http://www.w3.org/2000/svg" viewBox="0 0 750 500"><g id="freepik--background-complete--inject-19"><rect x="400.35" y="358.84" width="10.56" height="63.34" style="fill:#e0e0e0"></rect><rect x="417.32" y="358.84" width="10.56" height="63.34" style="fill:#e0e0e0"></rect><rect x="434.28" y="358.84" width="10.56" height="63.34" style="fill:#e0e0e0"></rect><rect x="451.25" y="358.84" width="10.56" height="63.34" style="fill:#e0e0e0"></rect><rect x="468.22" y="358.84" width="10.56" height="63.34" style="fill:#e0e0e0"></rect><rect x="485.18" y="358.84" width="10.56" height="63.34" style="fill:#e0e0e0"></rect><rect x="502.15" y="358.84" width="10.56" height="63.34" style="fill:#e0e0e0"></rect><rect x="393.94" y="366" width="117.26" height="3.39" rx="0.97" style="fill:#e0e0e0"></rect><rect x="393.94" y="414.56" width="117.26" height="3.39" rx="0.97" style="fill:#e0e0e0"></rect><path d="M156.88,228.82c-1.65,6,19.6,48.52,29.12,54.24l2.24,114.08-3.19,25.24h19.79l-5.08-101.56,25.48-81.11-6.7-3.21-22.3,72.75L187.71,238l-5.31-1.54,4.25,33.06s-19.14-17.68-22.86-40.74Z" style="fill:#e0e0e0"></path><path d="M293.14,146.09c-4.79-6.29-13.67-9.7-21-6.75,3.56-5.69,7.22-11.62,8-18.29s-2.21-14.28-8.5-16.62c-3.61-1.34-7.83-.83-11.17-2.75-5.49-3.16-5.78-10.86-5.15-17.16.69-7,1.67-14,.84-21s-3.74-14-9.39-18.22c-6.42-4.74-15.09-4.95-23-4-33.26,3.84-63.45,24.49-82.06,52.33s-28.39,61.14-26.84,94.59c.69,14.88,5.52,31.25,13.85,43.6,7.8,11.56,18.32,21.94,31.31,27,8.12,3.17,11.94,4.59,17,5.79a87.56,87.56,0,0,0,20.08,2.24h5.57c21.23-.94,35.08-10.4,51-24.52s26-32.71,35.86-51.54c3.66-7,7.09-14.28,8.36-22.08S297.93,152.38,293.14,146.09Z" style="fill:#f5f5f5"></path><rect x="171.03" y="403.59" width="2.92" height="18.79" style="fill:#ebebeb"></rect><rect x="193.75" y="403.59" width="2.92" height="18.79" style="fill:#ebebeb"></rect><rect x="216.48" y="403.59" width="2.92" height="18.79" style="fill:#ebebeb"></rect><rect x="167.22" y="406.36" width="54.05" height="3.32" style="fill:#ebebeb"></rect><path d="M532.75,231.27c-1.62,5.94,19.35,47.91,28.75,53.55l2.22,112.65-3.15,24.91H580.1l-5-100.27L600.25,242l-6.62-3.16-22,71.83-8.42-70.31-5.25-1.52,4.2,32.63S543.25,254,539.57,231.27Z" style="fill:#e0e0e0"></path><path d="M668.28,152.54c-4.73-6.21-13.51-9.58-20.75-6.67,3.52-5.61,7.12-11.47,7.89-18.05s-2.19-14.1-8.39-16.41c-3.57-1.33-7.74-.82-11-2.72-5.42-3.12-5.71-10.72-5.09-16.94.69-6.91,1.66-13.86.84-20.75s-3.7-13.86-9.28-18c-6.34-4.68-14.9-4.89-22.73-4-32.84,3.79-62.65,24.19-81,51.67s-28,60.37-26.51,93.39c.69,14.69,5.46,30.86,13.68,43,7.7,11.41,18.09,21.66,30.91,26.67,8,3.12,11.79,4.53,16.8,5.71a85.8,85.8,0,0,0,19.82,2.22h5.5c21-.93,34.63-10.27,50.3-24.21s25.7-32.3,35.41-50.89c3.61-6.92,7-14.1,8.25-21.8S673,158.75,668.28,152.54Z" style="fill:#f5f5f5"></path><rect x="546.72" y="403.83" width="2.89" height="18.55" style="fill:#ebebeb"></rect><rect x="569.16" y="403.83" width="2.89" height="18.55" style="fill:#ebebeb"></rect><rect x="591.59" y="403.83" width="2.89" height="18.55" style="fill:#ebebeb"></rect><rect x="542.96" y="406.56" width="53.36" height="3.27" style="fill:#ebebeb"></rect><rect x="48.64" y="358.84" width="10.56" height="63.34" style="fill:#e0e0e0"></rect><rect x="65.61" y="358.84" width="10.56" height="63.34" style="fill:#e0e0e0"></rect><rect x="82.58" y="358.84" width="10.56" height="63.34" style="fill:#e0e0e0"></rect><rect x="99.54" y="358.84" width="10.56" height="63.34" style="fill:#e0e0e0"></rect><rect x="116.51" y="358.84" width="10.56" height="63.34" style="fill:#e0e0e0"></rect><rect x="133.48" y="358.84" width="10.56" height="63.34" style="fill:#e0e0e0"></rect><rect x="150.44" y="358.84" width="10.56" height="63.34" style="fill:#e0e0e0"></rect><rect x="42.23" y="366" width="117.26" height="3.39" rx="0.97" style="fill:#e0e0e0"></rect><rect x="42.23" y="414.56" width="117.26" height="3.39" rx="0.97" style="fill:#e0e0e0"></rect><rect x="619.36" y="358.84" width="10.56" height="63.34" style="fill:#e0e0e0"></rect><rect x="636.33" y="358.84" width="10.56" height="63.34" style="fill:#e0e0e0"></rect><rect x="653.3" y="358.84" width="10.56" height="63.34" style="fill:#e0e0e0"></rect><rect x="670.26" y="358.84" width="10.56" height="63.34" style="fill:#e0e0e0"></rect><rect x="687.23" y="358.84" width="10.56" height="63.34" style="fill:#e0e0e0"></rect><rect x="704.2" y="358.84" width="10.56" height="63.34" style="fill:#e0e0e0"></rect><rect x="721.16" y="358.84" width="10.56" height="63.34" style="fill:#e0e0e0"></rect><rect x="612.95" y="366" width="117.26" height="3.39" rx="0.97" style="fill:#e0e0e0"></rect><rect x="612.95" y="414.56" width="117.26" height="3.39" rx="0.97" style="fill:#e0e0e0"></rect><path d="M724.39,274.62c.58-4.25-5.43-7.76-9.94-8.12-2.15-.17-4.39.15-6.43-.56-4.42-1.54-6.18-7.25-10.5-9.06-3.22-1.36-6.93-.15-10.06,1.42s-6.21,3.55-9.7,3.78c-3,.19-6.34-.94-9,.55-2,1.1-3,3.38-4.85,4.73s-4.11,1.6-6.33,1.72-4.5.14-6.52,1.06-3.69,3.06-3.27,5.24Z" style="fill:#ebebeb"></path><path d="M102.21,124.27c.49-3.6-4.58-6.56-8.4-6.87-1.82-.14-3.71.14-5.43-.46-3.73-1.31-5.22-6.13-8.87-7.67-2.72-1.14-5.86-.12-8.5,1.21s-5.25,3-8.2,3.19c-2.56.16-5.35-.79-7.59.46-1.68.94-2.55,2.86-4.09,4a9.78,9.78,0,0,1-5.35,1.45,15.09,15.09,0,0,0-5.52.9c-1.7.78-3.11,2.59-2.76,4.43Z" style="fill:#ebebeb"></path><path d="M442.21,243.82c.72-5.23-6.65-9.53-12.2-10-2.64-.21-5.39.19-7.89-.68-5.43-1.89-7.6-8.9-12.89-11.14-4-1.67-8.52-.18-12.36,1.75s-7.63,4.36-11.92,4.64c-3.73.24-7.78-1.15-11,.67-2.43,1.36-3.71,4.16-6,5.82s-5,2-7.77,2.11-5.54.17-8,1.31-4.52,3.75-4,6.42Z" style="fill:#f5f5f5"></path><path d="M725.94,102.12c.43-3.13-4-5.71-7.3-6-1.59-.13-3.23.11-4.73-.41-3.25-1.13-4.54-5.33-7.71-6.67-2.37-1-5.1-.1-7.4,1.05s-4.56,2.61-7.13,2.78c-2.23.14-4.66-.69-6.61.4-1.45.81-2.22,2.49-3.56,3.48A8.47,8.47,0,0,1,676.85,98a13.15,13.15,0,0,0-4.8.79,3.79,3.79,0,0,0-2.4,3.84Z" style="fill:#f5f5f5"></path><path d="M351.62,96.34s-.38-.1-1.07-.24a8.63,8.63,0,0,0-3-.08,8,8,0,0,0-3.95,1.73,8.24,8.24,0,0,0-2.78,4.44v0l-.17.65-.25-.62a8.92,8.92,0,0,0-3.34-4A8.57,8.57,0,0,0,333,96.84a11.26,11.26,0,0,0-4,.51,3.55,3.55,0,0,1,1-.44,8.5,8.5,0,0,1,3-.38,8.66,8.66,0,0,1,4.29,1.35,9.21,9.21,0,0,1,3.53,4.22l-.43,0,0,0a8.49,8.49,0,0,1,3-4.66,8.06,8.06,0,0,1,4.16-1.72,8.2,8.2,0,0,1,3,.22A3.45,3.45,0,0,1,351.62,96.34Z" style="fill:#e0e0e0"></path><path d="M536.56,32.2a14.83,14.83,0,0,1-1,1.13,24.82,24.82,0,0,0-2.41,3.26,23.87,23.87,0,0,0-3.57,12.67v.16l-.44,0a21.27,21.27,0,0,0-5.83-11.62,28.79,28.79,0,0,0-4.26-3.45s.13,0,.35.16a9.79,9.79,0,0,1,1,.55,18.75,18.75,0,0,1,3.17,2.52,20.86,20.86,0,0,1,6.05,11.78l-.44,0v-.17a23.31,23.31,0,0,1,3.75-12.84,21.12,21.12,0,0,1,2.54-3.21c.33-.35.62-.59.8-.77S536.54,32.19,536.56,32.2Z" style="fill:#e0e0e0"></path><path d="M369.54,50.66c.65-4.76-6.07-8.68-11.12-9.09-2.4-.19-4.91.18-7.19-.62-4.94-1.72-6.91-8.11-11.74-10.14-3.6-1.52-7.75-.17-11.25,1.59s-6.95,4-10.85,4.22c-3.4.22-7.09-1-10.06.62-2.22,1.24-3.38,3.79-5.42,5.29s-4.6,1.79-7.08,1.92-5,.16-7.3,1.2-4.12,3.42-3.65,5.85Z" style="fill:#fafafa"></path><path d="M40.4,422.37c0-.14,152-.26,339.42-.26s339.45.12,339.45.26-151.95.26-339.45.26S40.4,422.51,40.4,422.37Z" style="fill:#e0e0e0"></path></g><g id="freepik--Floor--inject-19"><path d="M730.5,478.77c0,.15-159.18.26-355.48.26s-355.52-.11-355.52-.26,159.14-.26,355.52-.26S730.5,478.63,730.5,478.77Z" style="fill:#263238"></path></g><g id="freepik--Plants--inject-19"><path d="M338.09,441a7.29,7.29,0,0,1,3.78,4.27,12.91,12.91,0,0,1,.5,5.8c-.43,3.76-2.57,7.55-4.87,10.56-3.16-2.77-3.89-7.59-4.11-10.06-.34-3.9,1.42-11.16,4.7-10.57" style="fill:#5852B8"></path><path d="M341.19,467.81a6.22,6.22,0,0,1,2-5.91,8.25,8.25,0,0,1,6.09-1.9,3.46,3.46,0,0,1,2.67,1.2,2.67,2.67,0,0,1,.05,2.69,5.4,5.4,0,0,1-2,2c-2.74,1.72-5.71,2.88-8.81,1.95" style="fill:#5852B8"></path><path d="M337.12,479.34a6.67,6.67,0,0,1,.12-.77c.1-.54.23-1.25.38-2.09a21.81,21.81,0,0,1,2.16-6.67,13.39,13.39,0,0,1,4.78-5.09,9.38,9.38,0,0,1,1.95-.86,5,5,0,0,1,.57-.14c.13,0,.19,0,.2,0a12.39,12.39,0,0,0-7.27,6.25,23.87,23.87,0,0,0-2.2,6.58c-.19.87-.35,1.58-.47,2.07A3.76,3.76,0,0,1,337.12,479.34Z" style="fill:#263238"></path><path d="M337.24,446.62a1.18,1.18,0,0,1,0,.34c0,.25,0,.57.06,1,.05.84.09,2.06.14,3.56.1,3,.18,7.18.16,11.78s-.14,8.76-.26,11.78c-.06,1.5-.12,2.72-.17,3.56,0,.4,0,.72-.07,1a1.91,1.91,0,0,1,0,.34,1.8,1.8,0,0,1,0-.34c0-.25,0-.57,0-1,0-.88,0-2.09.09-3.57.07-3,.15-7.17.17-11.77s0-8.76-.07-11.77c0-1.48,0-2.69-.06-3.57v-1A1.8,1.8,0,0,1,337.24,446.62Z" style="fill:#263238"></path><path d="M335.71,470.1a14.55,14.55,0,0,0-7.94-10.65c-1.06-.51-2.44-.84-3.31-.05s-.68,2.2-.25,3.3a12.41,12.41,0,0,0,11.42,7.71" style="fill:#5852B8"></path><path d="M328.28,463a4.2,4.2,0,0,1,.67.3,5.71,5.71,0,0,1,.76.4,10.62,10.62,0,0,1,1,.61,11.76,11.76,0,0,1,1.1.83,14.27,14.27,0,0,1,1.18,1.07,16,16,0,0,1,2.24,2.87,16.23,16.23,0,0,1,1.47,3.33A15,15,0,0,1,337,474a10.67,10.67,0,0,1,.19,1.37,9.41,9.41,0,0,1,0,1.14,5.75,5.75,0,0,1,0,.86,4.43,4.43,0,0,1-.08.73c-.07,0,0-1.05-.14-2.71-.06-.41-.11-.87-.22-1.35s-.24-1-.39-1.51a16.37,16.37,0,0,0-1.47-3.27,16.63,16.63,0,0,0-2.18-2.83c-.39-.39-.76-.77-1.14-1.08s-.74-.59-1.07-.84C329.21,463.5,328.25,463.07,328.28,463Z" style="fill:#263238"></path><path d="M58,478.05c-.09,0,0-1.63-.3-4.22a36.54,36.54,0,0,0-.79-4.51,37.53,37.53,0,0,0-1.78-5.3,37.94,37.94,0,0,0-2.6-4.94,34.85,34.85,0,0,0-2.71-3.69c-1.68-2-2.91-3.06-2.84-3.13a4.68,4.68,0,0,1,.9.7,24.25,24.25,0,0,1,2.22,2.19A31.05,31.05,0,0,1,53,458.82a32.19,32.19,0,0,1,4.44,10.39,31.31,31.31,0,0,1,.7,4.58,24.37,24.37,0,0,1,0,3.12A4.46,4.46,0,0,1,58,478.05Z" style="fill:#263238"></path><path d="M62.17,443.21a7.92,7.92,0,0,1,0,1.41c0,1,0,2.28,0,3.81,0,3.22,0,7.66.22,12.57s.56,9.34.85,12.54c.14,1.53.26,2.81.35,3.8a6.72,6.72,0,0,1,.07,1.4,6.57,6.57,0,0,1-.27-1.37c-.15-.89-.33-2.19-.52-3.79-.38-3.2-.79-7.64-1-12.56s-.18-9.37-.06-12.6c0-1.61.12-2.91.19-3.81A7.08,7.08,0,0,1,62.17,443.21Z" style="fill:#263238"></path><path d="M76,459c.07.05-.67,1-1.69,2.62a33.92,33.92,0,0,0-3.2,6.74,33,33,0,0,0-1.57,7.3c-.19,1.91-.18,3.11-.27,3.11a2.91,2.91,0,0,1-.1-.84,17.31,17.31,0,0,1,0-2.3A28,28,0,0,1,74,461.41a18.68,18.68,0,0,1,1.39-1.82C75.74,459.18,76,459,76,459Z" style="fill:#263238"></path><path d="M185.82,479.32a26.85,26.85,0,0,0-2.24-7.16,26.4,26.4,0,0,0-4.55-6,6.39,6.39,0,0,1,1.78,1.37,16.58,16.58,0,0,1,3.23,4.36,16.85,16.85,0,0,1,1.69,5.15A6.55,6.55,0,0,1,185.82,479.32Z" style="fill:#263238"></path><path d="M187.81,453.58a31.91,31.91,0,0,1,.2,3.7c.08,2.28.2,5.42.4,8.89s.47,6.62.67,8.89a29.28,29.28,0,0,1,.24,3.69,3.61,3.61,0,0,1-.22-1c-.11-.63-.24-1.55-.39-2.68-.29-2.27-.61-5.41-.82-8.89s-.27-6.64-.25-8.93c0-1.14,0-2.07.06-2.7A3.76,3.76,0,0,1,187.81,453.58Z" style="fill:#263238"></path><path d="M386.38,478.38c-.14.07-1.07-2.11-2.88-4.35s-3.72-3.63-3.63-3.76a14.08,14.08,0,0,1,6.51,8.11Z" style="fill:#263238"></path><path d="M388.67,448.94a4.7,4.7,0,0,1-.07,1.17c-.08.74-.19,1.82-.29,3.15A69,69,0,0,0,389.8,474c.29,1.31.55,2.36.74,3.08a6.1,6.1,0,0,1,.24,1.14,4.11,4.11,0,0,1-.43-1.08c-.26-.71-.57-1.75-.91-3.05a58.47,58.47,0,0,1-1.5-20.86c.15-1.33.31-2.41.46-3.14A5.35,5.35,0,0,1,388.67,448.94Z" style="fill:#263238"></path><path d="M400.93,464.08c.06.06-.54.71-1.31,1.88a16.84,16.84,0,0,0-2.2,5,16.64,16.64,0,0,0-.41,5.45c.13,1.41.35,2.26.27,2.29a6.36,6.36,0,0,1-.64-2.24,14.58,14.58,0,0,1,2.67-10.72A6.34,6.34,0,0,1,400.93,464.08Z" style="fill:#263238"></path><path d="M576,478.92c-.15.05-1.08-2.62-2.79-5.63s-3.51-5.19-3.39-5.3A23.29,23.29,0,0,1,576,478.92Z" style="fill:#263238"></path><path d="M578.85,453a31.24,31.24,0,0,1,.33,3.81c.16,2.35.41,5.59.8,9.16s.84,6.79,1.19,9.12a31,31,0,0,1,.5,3.79,5,5,0,0,1-.29-1c-.15-.64-.35-1.58-.57-2.74-.44-2.32-1-5.54-1.35-9.12s-.58-6.84-.65-9.2c0-1.18,0-2.14,0-2.8A5.13,5.13,0,0,1,578.85,453Z" style="fill:#263238"></path><path d="M591.81,479.61a7.57,7.57,0,0,1-1.13-2.15,18.91,18.91,0,0,1-1.3-5.71,19.41,19.41,0,0,1,.47-5.84,7.9,7.9,0,0,1,.82-2.29,30.08,30.08,0,0,0-.77,8.09A30.64,30.64,0,0,0,591.81,479.61Z" style="fill:#263238"></path><path d="M714,462.27a10.16,10.16,0,0,1,1,2.31,40.45,40.45,0,0,1,1.54,5.85,39.92,39.92,0,0,1,.66,6,10.31,10.31,0,0,1-.08,2.5,14.47,14.47,0,0,1-.28-2.48c-.14-1.53-.39-3.63-.81-5.94s-1-4.35-1.38-5.83A15.16,15.16,0,0,1,714,462.27Z" style="fill:#263238"></path><path d="M722,435.25c.14,0,.79,9.81,1.44,21.93s1.06,21.95.92,21.95-.79-9.81-1.44-21.93S721.8,435.26,722,435.25Z" style="fill:#263238"></path></g><g id="freepik--Bench--inject-19"><polygon points="429.71 399.13 411.43 478.49 419.16 478.48 437.48 399.88 429.71 399.13" style="fill:#455a64"></polygon><polygon points="457.11 399.13 475.45 478.49 482.8 478.49 465.05 399.13 457.11 399.13" style="fill:#455a64"></polygon><polygon points="420.73 339.52 431.13 394.16 442.96 394.16 431.84 339.52 420.73 339.52" style="fill:#455a64"></polygon><polygon points="248.71 399.13 233.81 478.49 241.39 478.49 256.97 399.13 248.71 399.13" style="fill:#455a64"></polygon><polygon points="280.06 399.13 297.11 478.06 304.61 478.06 288.15 399.13 280.06 399.13" style="fill:#455a64"></polygon><polygon points="236.38 339.52 246.78 394.16 258.61 394.16 247.49 339.52 236.38 339.52" style="fill:#455a64"></polygon><polygon points="221.14 334.63 223.1 344.56 441.23 344.56 438.69 334.63 221.14 334.63" style="fill:#455a64"></polygon><polygon points="225.31 353.92 227.61 363.86 444.27 363.86 442.31 353.92 225.31 353.92" style="fill:#455a64"></polygon><polygon points="229.62 373.89 231.76 383.83 447.75 383.83 445.71 373.89 229.62 373.89" style="fill:#455a64"></polygon><rect x="240.16" y="394.16" width="237.62" height="9.93" style="fill:#455a64"></rect><path d="M447.75,383.83c0,.14-47.65.3-106.41.35s-106.42,0-106.42-.16,47.63-.31,106.42-.36S447.75,383.68,447.75,383.83Z" style="fill:#263238"></path><path d="M445.71,373.89c0,.15-47.19.34-105.39.43s-105.4.05-105.4-.1,47.18-.33,105.4-.42S445.71,373.75,445.71,373.89Z" style="fill:#263238"></path><path d="M443.53,363.86c0,.14-46.68.26-104.26.26S235,364,235,363.86s46.68-.26,104.28-.26S443.53,363.71,443.53,363.86Z" style="fill:#263238"></path><path d="M442.31,353.92c0,.15-46.42.29-103.65.33S235,354.19,235,354.05s46.4-.29,103.66-.32S442.31,353.78,442.31,353.92Z" style="fill:#263238"></path><path d="M441.23,344.56l-.53,0-1.56,0-6,0-22.1.09-72.91.07-72.92-.07-22.1-.09-6,0-1.56,0-.54,0,.54,0,1.56,0,6-.05,22.1-.08,72.92-.08,72.91.08,22.1.08,6,.05,1.56,0Z" style="fill:#263238"></path><path d="M477.78,394.16c0,.15-53.15.26-118.69.26s-118.71-.11-118.71-.26,53.14-.26,118.71-.26S477.78,394,477.78,394.16Z" style="fill:#263238"></path><path d="M477.78,404.1c0,.14-53.15.26-118.69.26s-118.71-.12-118.71-.26,53.14-.26,118.71-.26S477.78,404,477.78,404.1Z" style="fill:#263238"></path></g><g id="freepik--Birds--inject-19"><path d="M482.34,99.22c0,.07-1.21-.42-3.45-.91a27.34,27.34,0,0,0-9.63-.37,25.85,25.85,0,0,0-13,5.59,27,27,0,0,0-9.16,14.55l0,.16-.27,1-.4-1a28.86,28.86,0,0,0-11-13.24,28,28,0,0,0-13.39-4.47,29.58,29.58,0,0,0-9.57.88c-2.21.58-3.38,1.1-3.4,1a4.35,4.35,0,0,1,.83-.4,18.82,18.82,0,0,1,2.5-.89,28.47,28.47,0,0,1,9.67-1.11,28.15,28.15,0,0,1,13.71,4.42A29.21,29.21,0,0,1,447.06,118l-.66.06,0-.17A27.28,27.28,0,0,1,455.88,103a26.13,26.13,0,0,1,13.32-5.59A26.75,26.75,0,0,1,479,98a18.43,18.43,0,0,1,2.54.81A4.51,4.51,0,0,1,482.34,99.22Z" style="fill:#263238"></path><path d="M476,60.62s-.44-.12-1.21-.28a9.73,9.73,0,0,0-3.34-.1A9,9,0,0,0,467,62.19a9.29,9.29,0,0,0-3.15,5v.06l-.17.65-.26-.62a10,10,0,0,0-3.77-4.57,9.85,9.85,0,0,0-4.61-1.56,10.71,10.71,0,0,0-3.32.27c-.77.19-1.18.36-1.19.32s.09-.06.28-.15a5.4,5.4,0,0,1,.87-.33,9.69,9.69,0,0,1,3.38-.42,9.81,9.81,0,0,1,4.81,1.53,10.22,10.22,0,0,1,4,4.74l-.42,0,0-.06a9.55,9.55,0,0,1,3.32-5.23,9.26,9.26,0,0,1,8.1-1.7,5.45,5.45,0,0,1,.88.3C475.93,60.55,476,60.6,476,60.62Z" style="fill:#263238"></path><path d="M510.43,126.39s-.43-.12-1.2-.28a9.77,9.77,0,0,0-3.34-.09,9,9,0,0,0-4.46,1.94,9.28,9.28,0,0,0-3.15,5l0,.05-.16.66-.26-.63a9.92,9.92,0,0,0-3.77-4.56,9.63,9.63,0,0,0-4.61-1.56,10.41,10.41,0,0,0-3.32.27c-.77.19-1.18.36-1.19.32s.09-.07.28-.16a6.57,6.57,0,0,1,.87-.33,9.94,9.94,0,0,1,8.19,1.12,10.22,10.22,0,0,1,4,4.74l-.42,0,0-.05a9.51,9.51,0,0,1,3.32-5.23,9.22,9.22,0,0,1,8.09-1.71,8.09,8.09,0,0,1,.89.3C510.34,126.33,510.44,126.38,510.43,126.39Z" style="fill:#263238"></path><path d="M416.42,139.19s-.41.47-1.17,1.32a29.89,29.89,0,0,0-2.86,3.86,28.09,28.09,0,0,0-4.24,15v.19l-.44,0a24.74,24.74,0,0,0-2.75-8.14,25.11,25.11,0,0,0-4.18-5.64,25.45,25.45,0,0,0-3.63-3.08c-.92-.64-1.46-1-1.44-1s.15,0,.41.19.66.34,1.13.66a23,23,0,0,1,3.75,3,24.71,24.71,0,0,1,7.14,13.94l-.44,0v-.19a27.68,27.68,0,0,1,4.43-15.19,25.28,25.28,0,0,1,3-3.81c.39-.42.73-.71.95-.92A1.9,1.9,0,0,1,416.42,139.19Z" style="fill:#263238"></path></g><g id="freepik--character-3--inject-19"><path d="M499.67,238.26a49.16,49.16,0,0,1,5.46,5.08c2.17,2.48,21.66,39,21.66,39l35,16.09-3.47,12.51s-35.44-11.42-41-15.75S503,271.53,503,271.53Z" style="fill:#5852B8"></path><path d="M561.42,299.55,571.3,297l5.37,2.84,1.6,6.14a3.36,3.36,0,0,1-3.54-1.38l-1.37-.95-2.48,1.48-2.51,8-9.89-2.93Z" style="fill:#ffd7be"></path><path d="M573.86,304a3.35,3.35,0,0,0-3.17-.36,2.16,2.16,0,0,0-1.11.93,1.29,1.29,0,0,0,.06,1.39,1.35,1.35,0,0,0-2,.13,1.91,1.91,0,0,0,0,2.17,1.85,1.85,0,0,0-1.27,1.75,3.3,3.3,0,0,0,.84,2.11,3.24,3.24,0,0,0,2.39,1.3,1.78,1.78,0,0,0,1.8-1.75,1.83,1.83,0,0,0,3-1.94c.91.37,1.91-.37,2.39-1.22a1.68,1.68,0,0,0-.1-2.14c-.27-.24-.64-.44-.9-.69-.76-.74-1.48-1-1.9-1.74" style="fill:#ffd7be"></path><path d="M574.33,309.69a9.63,9.63,0,0,1-2.77-1.77,9.47,9.47,0,0,1-2.28-2.37,26.52,26.52,0,0,1,2.52,2.07A28.1,28.1,0,0,1,574.33,309.69Z" style="fill:#ffb494"></path><path d="M572,311.83s-.31-.17-.76-.46-1.1-.66-1.81-1.11a7,7,0,0,1-1.66-1.4c-.35-.45-.46-.78-.42-.8s.24.24.62.62a10.59,10.59,0,0,0,1.67,1.25,17.22,17.22,0,0,1,1.76,1.22C571.83,311.51,572,311.79,572,311.83Z" style="fill:#ffb494"></path><path d="M592.41,310.41a7.75,7.75,0,0,0-2.92-2.7,122,122,0,0,0-12.56-6.84l.83,3.18,2.69,1.5s1.78.87.68,2.27a23.05,23.05,0,0,0-2.86,4.67,10.46,10.46,0,0,1-1.15,2.12,9,9,0,0,1-3.26.74c-1.64.07-5-.71-5.67-1.88a1.87,1.87,0,0,1-.22-.6L566.33,311a4.67,4.67,0,0,0,2.36,4.77c1.84,1,4.06,1.05,6.17,1a2.76,2.76,0,0,1,1.31.19,3.51,3.51,0,0,1,1,1.06c2.38,3,6.86,3.76,10.52,2.61a7.5,7.5,0,0,0,4.41-3.19,8.23,8.23,0,0,0,.85-3.86A6.69,6.69,0,0,0,592.41,310.41Z" style="fill:#263238"></path><path d="M661.77,437.31c.06.09-19.14-32.66-38.18-63.3s-34.41-55.54-34.32-55.59,15.6,24.73,34.65,55.39S661.37,436.61,661.77,437.31Z" style="fill:#263238"></path><path d="M577.24,307c0,.05-.8-.8-2.24-1.9a9.3,9.3,0,0,0-2.72-1.56,2.9,2.9,0,0,0-1.75,0,1.79,1.79,0,0,0-1.18,1.3,1.37,1.37,0,0,0,0,.57l.07.34-.32-.11a1.59,1.59,0,0,0-1.78.61,1.63,1.63,0,0,0,0,1.74l.23.33-.39-.07a1.28,1.28,0,0,0-1.36,1,2,2,0,0,0,.37,1.42c.47.75.85,1.11.81,1.14s-.11-.06-.29-.23a5.9,5.9,0,0,1-.68-.8,3.8,3.8,0,0,1-.37-.67,1.48,1.48,0,0,1-.11-.92,1.75,1.75,0,0,1,.54-.92,1.39,1.39,0,0,1,1.15-.36l-.17.26a2,2,0,0,1,0-2.13,2,2,0,0,1,2.21-.77l-.24.22a1.68,1.68,0,0,1,0-.74,2.14,2.14,0,0,1,1.44-1.57,3.23,3.23,0,0,1,2,0,9.23,9.23,0,0,1,2.78,1.68,14.51,14.51,0,0,1,1.59,1.49A2.62,2.62,0,0,1,577.24,307Z" style="fill:#ffb494"></path><path d="M570.76,301c0-.1,1.29.42,3,.58h.16v.18c0,.12,0,.25,0,.39a4.61,4.61,0,0,0,.86,2.18c.36.5.66.75.62.8s-.39-.14-.83-.63a4.14,4.14,0,0,1-1-2.31c0-.15,0-.29,0-.43l.17.19A6.08,6.08,0,0,1,570.76,301Z" style="fill:#ffb494"></path><path d="M571.1,299.93a2.81,2.81,0,0,1-.31,1.19,8,8,0,0,1-1.62,2.49,8.18,8.18,0,0,1-2.41,1.74,3,3,0,0,1-1.18.36,14.25,14.25,0,0,0,3.31-2.36A14.76,14.76,0,0,0,571.1,299.93Z" style="fill:#ffb494"></path><path d="M553.43,478.74c0-1.45-2-145.51-2.32-157.72-.25-9.47-5.6-10.88-6.44-11-2.59-.25-4.55.31-6,1.72-3,3-3.13,9.42-2.92,11.63l-5.18.52c-.05-.42-1-10.44,4.41-15.83,2.58-2.57,6-3.65,10.29-3.21h.1c3.64.52,10.61,4.54,10.92,16.07.34,12.24,2.3,156.34,2.32,157.79Z" style="fill:#263238"></path><path d="M543.23,300.78s7,2,7.8,2.34,5.09,7,5.09,7L557.6,315l-1,4s-.57.58-1.15-.49a16.07,16.07,0,0,1-1-3.53l-1.56-2.48-1.29-1s-.27,3.31-1.22,3.55-3.57-.08-3.82-.65l-.24-.58s-2.13,1.72-3.12,1.31a1.47,1.47,0,0,1-1-1.15,2.42,2.42,0,0,1-2.09.66,2.39,2.39,0,0,1-.32-.11,2.23,2.23,0,0,1-1.45-2h0Z" style="fill:#ffd7be"></path><path d="M545.29,309.61a5.34,5.34,0,0,1-1.11,2.5,6.16,6.16,0,0,1-2,1.89,21.28,21.28,0,0,1,1.67-2.12C544.71,310.69,545.17,309.55,545.29,309.61Z" style="fill:#ffb494"></path><path d="M548.94,309.47a6.3,6.3,0,0,1-.89,2.42,5,5,0,0,1-1.7,1.95c-.1-.09.69-.93,1.36-2.14A12.91,12.91,0,0,1,548.94,309.47Z" style="fill:#ffb494"></path><path d="M551.41,309.08a4.58,4.58,0,0,1,.33,2.24,4.52,4.52,0,0,1-.45,2.21,12.8,12.8,0,0,1,.06-2.22A12.41,12.41,0,0,1,551.41,309.08Z" style="fill:#ffb494"></path><path d="M491.15,450.67l.27,28,36.91-.26c-.23-3.33-19.35-9.89-19.35-9.89l.61-18Z" style="fill:#5852B8"></path><g style="opacity:0.6000000000000001"><path d="M497.56,467.13a1.42,1.42,0,0,0-1,1.63,1.45,1.45,0,0,0,1.7,1,1.5,1.5,0,0,0,1.09-1.73,1.54,1.54,0,0,0-1.89-.84" style="fill:#fff"></path></g><g style="opacity:0.6000000000000001"><path d="M491.42,478.71l.09-2.83,35.35.81s1.65.67,1.47,1.76Z" style="fill:#fff"></path></g><path d="M509.57,468.38c0,.17-.9.26-1.79.81s-1.35,1.27-1.52,1.21.1-1.06,1.19-1.71S509.61,468.22,509.57,468.38Z" style="fill:#263238"></path><path d="M513.45,469.87c0,.16-.74.46-1.34,1.18s-.79,1.49-1,1.48-.29-1,.48-1.85S513.45,469.71,513.45,469.87Z" style="fill:#263238"></path><path d="M515.67,474.23c-.16,0-.42-.81,0-1.75s1.3-1.31,1.38-1.17-.45.65-.81,1.42S515.85,474.21,515.67,474.23Z" style="fill:#263238"></path><path d="M509.23,464.27c-.07.16-.9-.07-1.92,0s-1.81.38-1.9.24.66-.76,1.86-.83S509.32,464.14,509.23,464.27Z" style="fill:#263238"></path><path d="M508.34,460.14a3.66,3.66,0,0,1-1.85,0,8.63,8.63,0,0,1-1.94-.55,7.4,7.4,0,0,1-1.06-.52,2.33,2.33,0,0,1-.56-.41.7.7,0,0,1-.09-.9,1,1,0,0,1,.79-.4,2.48,2.48,0,0,1,.7.09,6.72,6.72,0,0,1,1.15.36,6.44,6.44,0,0,1,1.7,1.05c.86.74,1.16,1.38,1.1,1.41s-.5-.47-1.38-1.09a7.23,7.23,0,0,0-1.65-.86,6.87,6.87,0,0,0-1.06-.31c-.39-.09-.73-.09-.83.07s0,.09.05.2a1.61,1.61,0,0,0,.41.3,9.29,9.29,0,0,0,1,.52,9.68,9.68,0,0,0,1.79.63A13.48,13.48,0,0,1,508.34,460.14Z" style="fill:#263238"></path><path d="M508.1,460.38a2.69,2.69,0,0,1-.49-1.68,5.4,5.4,0,0,1,.24-1.91,6.23,6.23,0,0,1,.47-1.07,1.54,1.54,0,0,1,1.18-.89.86.86,0,0,1,.77.48,2.28,2.28,0,0,1,.19.64,3.6,3.6,0,0,1,0,1.18,3.91,3.91,0,0,1-.78,1.81c-.72.91-1.47,1.12-1.49,1.06s.57-.42,1.12-1.29a3.93,3.93,0,0,0,.58-1.65,3.85,3.85,0,0,0,0-1c-.06-.37-.21-.66-.36-.63s-.49.28-.64.58a6.34,6.34,0,0,0-.46.95,6.53,6.53,0,0,0-.35,1.75C508,459.72,508.2,460.36,508.1,460.38Z" style="fill:#263238"></path><path d="M453.74,441.61l-12.48,23.76,31.24,16.51c1.32-2.91-11.84-17.11-11.84-17.11l8.66-14.88Z" style="fill:#5852B8"></path><g style="opacity:0.6000000000000001"><path d="M451.68,458.39a1.29,1.29,0,1,0-.62,2.5,1.43,1.43,0,0,0,1.7-1,1.46,1.46,0,0,0-1.21-1.56" style="fill:#fff"></path></g><g style="opacity:0.6000000000000001"><path d="M441.26,465.37l1.36-2.34,29.44,16.7s1.09,1.31.44,2.15Z" style="fill:#fff"></path></g><path d="M461.25,464.89c-.08.14-.88-.2-1.88-.13s-1.72.46-1.83.33.56-.84,1.77-.9S461.35,464.78,461.25,464.89Z" style="fill:#263238"></path><path d="M463.84,467.9c0,.16-.83.05-1.67.39s-1.33.9-1.48.81.19-1,1.24-1.35S463.91,467.76,463.84,467.9Z" style="fill:#263238"></path><path d="M463.74,472.59c-.16,0,0-.88.82-1.46s1.7-.52,1.7-.36-.67.34-1.33.83S463.9,472.65,463.74,472.59Z" style="fill:#263238"></path><path d="M462.82,461.27c-.13.1-.73-.47-1.62-.87s-1.7-.5-1.71-.67.9-.33,1.95.15S463,461.2,462.82,461.27Z" style="fill:#263238"></path><path d="M463.94,457.38a3.5,3.5,0,0,1-1.56-.84A8.16,8.16,0,0,1,461,455.2a9.37,9.37,0,0,1-.65-.92,1.86,1.86,0,0,1-.29-.6.68.68,0,0,1,.34-.8,1,1,0,0,1,.84,0,2.78,2.78,0,0,1,.55.39,6.23,6.23,0,0,1,.8.83,6.35,6.35,0,0,1,1,1.66c.39,1,.35,1.68.28,1.68s-.21-.63-.67-1.54a7.14,7.14,0,0,0-1-1.48,5.89,5.89,0,0,0-.76-.73c-.28-.26-.56-.41-.72-.32s-.08.06-.06.19a1.75,1.75,0,0,0,.22.43,8.08,8.08,0,0,0,.59.89,9.07,9.07,0,0,0,1.22,1.34C463.42,457,464,457.3,463.94,457.38Z" style="fill:#263238"></path><path d="M463.63,457.48a2.62,2.62,0,0,1,.35-1.64,5.28,5.28,0,0,1,1.07-1.51,5.13,5.13,0,0,1,.88-.68,1.43,1.43,0,0,1,1.39-.22.82.82,0,0,1,.44.75,2.58,2.58,0,0,1-.13.63,3.53,3.53,0,0,1-.53,1,3.78,3.78,0,0,1-1.48,1.17,2.27,2.27,0,0,1-1.73.22,14.82,14.82,0,0,0,1.52-.58,3.63,3.63,0,0,0,1.24-1.13,3.51,3.51,0,0,0,.42-.87c.12-.34.13-.66,0-.69a1,1,0,0,0-.81.19,5.68,5.68,0,0,0-1.9,1.91C463.85,456.88,463.73,457.5,463.63,457.48Z" style="fill:#263238"></path><polygon points="468.87 363.16 481.29 401.84 488.36 466.04 515.06 466.04 514 374.12 510.98 354.72 468.87 363.16" style="fill:#263238"></polygon><path d="M474.58,366.21l-3.35,17.61s-5.09,12.79-7.54,18.19c-1.43,3.17-19.56,48.46-19.56,48.46L467,460.28l32-56.78,6.65-40.19Z" style="fill:#263238"></path><path d="M501.76,466s0-.08,0-.23,0-.41,0-.69c0-.63,0-1.52-.09-2.65-.07-2.29-.18-5.61-.36-9.72-.33-8.2-.95-19.53-1.65-32.05s-1.27-23.85-1.53-32.07c-.14-4.1-.21-7.43-.23-9.72,0-1.13,0-2,0-2.65v-.69a.82.82,0,0,1,0-.23.6.6,0,0,1,0,.23c0,.18,0,.4,0,.69q0,.94.09,2.64c.07,2.3.18,5.62.35,9.72.34,8.21.95,19.54,1.65,32.06s1.27,23.85,1.53,32.06c.15,4.11.22,7.43.24,9.73,0,1.13,0,2,0,2.65,0,.28,0,.51,0,.68A.64.64,0,0,1,501.76,466Z" style="fill:#455a64"></path><path d="M479.94,397.28a3.2,3.2,0,0,1-.21.6c-.18.42-.41,1-.7,1.7-.62,1.51-1.49,3.63-2.57,6.24-2.17,5.31-5.15,12.58-8.44,20.61s-6.31,15.33-8.55,20.58c-1.12,2.62-2,4.73-2.69,6.19l-.76,1.67a4.05,4.05,0,0,1-.29.57,4,4,0,0,1,.22-.6l.69-1.7c.62-1.51,1.5-3.63,2.57-6.24,2.18-5.3,5.16-12.58,8.45-20.61S474,411,476.21,405.72c1.11-2.63,2-4.74,2.68-6.2.32-.7.58-1.26.76-1.67A4.05,4.05,0,0,1,479.94,397.28Z" style="fill:#455a64"></path><path d="M497.85,375.34a12,12,0,0,1,.23-2c.18-1.24.41-2.94.6-4.83s.31-3.61.39-4.86a10.67,10.67,0,0,1,.18-2,9.31,9.31,0,0,1,.09,2c0,1.25-.08,3-.27,4.89s-.47,3.61-.72,4.83A9,9,0,0,1,497.85,375.34Z" style="fill:#263238"></path><path d="M488.36,466s0-.09-.05-.27-.06-.46-.1-.79c-.08-.72-.2-1.74-.35-3.05-.3-2.67-.72-6.49-1.24-11.21-1-9.49-2.41-22.56-3.94-37-.4-3.76-.78-7.42-1.15-10.94v0c-3.64-11.32-6.83-21.22-9.12-28.31-1.12-3.53-2-6.36-2.64-8.33-.3-1-.53-1.7-.69-2.24l-.17-.58c0-.13-.06-.2-.05-.2s0,.06.08.19l.2.57c.18.53.43,1.27.76,2.22.65,2,1.58,4.78,2.75,8.29,2.31,7.09,5.55,17,9.24,28.27v0c.37,3.52.76,7.18,1.15,10.94,1.5,14.44,2.85,27.52,3.83,37,.47,4.73.85,8.55,1.12,11.23.12,1.31.21,2.33.28,3.05l.06.8A.79.79,0,0,1,488.36,466Z" style="fill:#455a64"></path><path d="M541.39,192.92c-1.12-1.13-2.5-2.06-3.19-3.49-.79-1.65-.48-3.6-.83-5.4-.76-3.78-4.5-6.39-8.3-7.05s-6.69-1-10.31.84c-2.41,1.21-5.89,5.11-5.89,5.11a13.77,13.77,0,0,0-8.63-.81,15.32,15.32,0,0,0-7.83,4.74A7.92,7.92,0,0,0,494,192c0,2,1.25,3.93.9,5.9s-2.18,3.31-3.8,4.5-3.35,2.74-3.35,4.75c0,1.73,1.3,3.21,1.48,4.92s-.82,3.41-.91,5.16a5,5,0,0,0,6.77,4.95l25,2.32a13.23,13.23,0,0,0,19-10.86,7.87,7.87,0,0,1,.43-2.65,8.47,8.47,0,0,1,1.89-2.26,11.28,11.28,0,0,0-.08-15.8Z" style="fill:#263238"></path><path d="M499.28,250.33a11.37,11.37,0,0,1-7.66-14l10-35.87c2.39-9.73,10-16.44,19.69-13.78l.88.29a17.92,17.92,0,0,1,11.62,21.32c-2.12,8.42-4.57,17.69-6.11,22.07-3.2,9.06-12.78,7.39-12.78,7.39s-.65,2.13-1.44,4.83a11.39,11.39,0,0,1-14.23,7.71Z" style="fill:#ffd7be"></path><path d="M514.92,237.9a23.22,23.22,0,0,1-10.66-7.52s.64,7.59,10,9.85Z" style="fill:#ffb494"></path><path d="M528.85,215.07a1.37,1.37,0,0,1-1.7.88,1.3,1.3,0,0,1-.94-1.62,1.37,1.37,0,0,1,1.69-.89A1.31,1.31,0,0,1,528.85,215.07Z" style="fill:#263238"></path><path d="M530.4,212.16c-.22.11-.95-.95-2.35-1.42s-2.66-.12-2.76-.34.22-.35.78-.53a3.78,3.78,0,0,1,2.27.07,3.64,3.64,0,0,1,1.81,1.34C530.47,211.75,530.51,212.11,530.4,212.16Z" style="fill:#263238"></path><path d="M515.63,211.32a1.37,1.37,0,0,1-1.7.88,1.3,1.3,0,0,1-.94-1.62,1.36,1.36,0,0,1,1.69-.89A1.32,1.32,0,0,1,515.63,211.32Z" style="fill:#263238"></path><path d="M516.84,207.93c-.22.12-1-1-2.36-1.42s-2.66-.11-2.75-.34.21-.35.77-.52a3.72,3.72,0,0,1,2.28.06,3.61,3.61,0,0,1,1.8,1.34C516.9,207.53,516.94,207.88,516.84,207.93Z" style="fill:#263238"></path><path d="M518.06,219.92a10.35,10.35,0,0,1,2.41.36c.37.09.73.13.88-.09a2,2,0,0,0,.12-1.14c-.05-1-.09-2-.14-3.08-.15-4.36-.13-7.91,0-7.91s.45,3.53.6,7.9c0,1.07.06,2.1.08,3.08a2.12,2.12,0,0,1-.29,1.46.93.93,0,0,1-.76.32,2.2,2.2,0,0,1-.63-.12A8.91,8.91,0,0,1,518.06,219.92Z" style="fill:#263238"></path><path d="M511.54,201.65c.17-.39,1.63-.12,3.37-.24s3.17-.5,3.38-.13c.09.18-.17.54-.76.9a5.71,5.71,0,0,1-2.54.73,5.6,5.6,0,0,1-2.6-.45C511.77,202.17,511.47,201.84,511.54,201.65Z" style="fill:#263238"></path><path d="M527.15,204.8c.39-.18,1.13.6,2.21,1.17s2.11.83,2.17,1.25c0,.2-.29.43-.84.5a3.38,3.38,0,0,1-2.05-.44,3.45,3.45,0,0,1-1.47-1.51C526.94,205.27,527,204.89,527.15,204.8Z" style="fill:#263238"></path><path d="M500.08,207.6c-.14-.12-5.63-4-7.54,2.32s4.8,6.91,4.86,6.73S500.08,207.6,500.08,207.6Z" style="fill:#ffd7be"></path><path d="M496.21,213.68s-.14,0-.35.08a1.15,1.15,0,0,1-.82-.24,2.83,2.83,0,0,1-.52-2.81,3.78,3.78,0,0,1,.79-1.47,1.27,1.27,0,0,1,1.08-.59.57.57,0,0,1,.55.49c0,.2-.05.32,0,.34s.17-.07.2-.34a.75.75,0,0,0-.13-.47.83.83,0,0,0-.56-.34A1.59,1.59,0,0,0,495,209a3.91,3.91,0,0,0-.91,1.64,3,3,0,0,0,.77,3.2,1.25,1.25,0,0,0,1.06.14C496.15,213.83,496.22,213.7,496.21,213.68Z" style="fill:#ffb494"></path><path d="M497.76,235.17s-.16-.06-.31-.3a1.74,1.74,0,0,1-.21-1.15,4.32,4.32,0,0,1,.58-1.61,3.64,3.64,0,0,0,.56-1.84c0-.33-.15-.67-.17-1.05a1.65,1.65,0,0,1,.32-1,1.4,1.4,0,0,0,.27-.75,3.5,3.5,0,0,0-.15-.73,1.38,1.38,0,0,1,.13-1.17c.2-.23.4-.21.39-.19s-.15.06-.27.27a1.22,1.22,0,0,0,0,1,3.05,3.05,0,0,1,.19.79,1.58,1.58,0,0,1-.27.92,1.41,1.41,0,0,0-.26.84c0,.31.15.64.18,1a3.72,3.72,0,0,1-.63,2,4.69,4.69,0,0,0-.62,1.5,1.85,1.85,0,0,0,.08,1C497.67,235,497.78,235.14,497.76,235.17Z" style="fill:#ffb494"></path><path d="M501,236.89s-.17,0-.36-.27a2,2,0,0,1-.34-1.16,17.92,17.92,0,0,1,.26-3.92,6.49,6.49,0,0,1,.3-1.09,8.36,8.36,0,0,0,.33-.95c.16-.6-.35-1-.62-1.44a1.06,1.06,0,0,1-.16-.72.63.63,0,0,1,.34-.45c.31-.14.48.05.45.06a.47.47,0,0,0-.59.42.84.84,0,0,0,.18.55c.12.2.32.38.5.64a1.28,1.28,0,0,1,.22,1,6.61,6.61,0,0,1-.32,1,8,8,0,0,0-.28,1.05,25,25,0,0,0-.35,3.83,2.24,2.24,0,0,0,.2,1.1C500.86,236.78,501,236.86,501,236.89Z" style="fill:#ffb494"></path><path d="M538,201.62a19.33,19.33,0,0,0-38.51,3.15c0,.91-.65,1.86,0,2.49a4.36,4.36,0,0,0,3.61.45,6.29,6.29,0,0,0,2.32-1.78,20.37,20.37,0,0,0,5.15-12.87,7.48,7.48,0,0,0,12.16,3.09,11.45,11.45,0,0,0,16.48,5.95Z" style="fill:#263238"></path><path d="M514.54,222.18a2.07,2.07,0,0,1,3,2.41,3,3,0,0,1-2.1,1.87c-.57,0-.84-.56-1.31-.87a2,2,0,0,1-.84-1,1.84,1.84,0,0,1,.38-1.73,2.77,2.77,0,0,1,1.22-.88" style="fill:#ffb494"></path><path d="M524.77,204.5a4.85,4.85,0,0,1-2.61-.55,4.92,4.92,0,0,1-2.17-1.56c.08-.09,1,.63,2.32,1.2S524.78,204.39,524.77,204.5Z" style="fill:#ffb494"></path><path d="M526.05,203.65a11.42,11.42,0,0,1-6-2.77c.06-.09,1.31.72,3,1.48S526.08,203.54,526.05,203.65Z" style="fill:#ffb494"></path><path d="M511.1,209c0,.1-.53.36-1.29.38s-1.33-.23-1.3-.33.6,0,1.29-.06S511.07,208.94,511.1,209Z" style="fill:#ffb494"></path><path d="M511.18,208.88c0,.1-.68,0-1.32-.44s-.95-1-.87-1.09.5.36,1.09.77S511.21,208.77,511.18,208.88Z" style="fill:#ffb494"></path><path d="M530.58,215.44c0,.11-.23.24-.55.29s-.59,0-.61-.09.23-.24.55-.29S530.56,215.34,530.58,215.44Z" style="fill:#ffb494"></path><path d="M530.85,216.51c-.05.09-.43,0-.84-.24s-.7-.49-.64-.59.42,0,.83.25S530.9,216.42,530.85,216.51Z" style="fill:#ffb494"></path><path d="M527.73,217.06s-.08.2-.37.36a1.87,1.87,0,0,1-2.31-.46c-.2-.25-.25-.45-.2-.48s.52.58,1.35.74S527.67,217,527.73,217.06Z" style="fill:#ffb494"></path><path d="M514.28,212.84a1.7,1.7,0,0,1-1.66,0c-.91-.37-1.26-1.15-1.16-1.18s.53.51,1.31.82S514.26,212.73,514.28,212.84Z" style="fill:#ffb494"></path><path d="M492.85,203.88a5.53,5.53,0,0,0,1.17,0,4,4,0,0,0,2.54-1.74,8.21,8.21,0,0,0,1-4.56c0-.9,0-1.86,0-2.86a9,9,0,0,1,.59-3.05,8.32,8.32,0,0,1,4-4.34,8,8,0,0,1,7.84.59,6.13,6.13,0,0,1,.7.55c.15.14.22.22.21.23s-.34-.26-1-.65a8.14,8.14,0,0,0-3-1.08,7.72,7.72,0,0,0-4.6.68,8,8,0,0,0-3.82,4.17c-.78,1.91-.55,3.95-.59,5.76a8.3,8.3,0,0,1-1.15,4.71A4.06,4.06,0,0,1,494,204a2.7,2.7,0,0,1-.9,0C492.94,203.93,492.84,203.89,492.85,203.88Z" style="fill:#455a64"></path><path d="M538.87,191.62a1.25,1.25,0,0,1-.09.31,2.69,2.69,0,0,1-.47.78,4.2,4.2,0,0,1-3,1.36,6.38,6.38,0,0,1-4.53-1.95c-1.42-1.26-2.56-3-4-4.51a9.1,9.1,0,0,0-2.44-1.85,7,7,0,0,0-2.73-.68,10.26,10.26,0,0,0-4.72,1,21.21,21.21,0,0,0-2.9,1.61,9.14,9.14,0,0,1-1,.65,6.17,6.17,0,0,1,1-.77,18,18,0,0,1,2.86-1.74,10.35,10.35,0,0,1,4.85-1.09,7.25,7.25,0,0,1,2.89.7,9.2,9.2,0,0,1,2.55,1.92c1.51,1.56,2.63,3.28,4,4.52a6.16,6.16,0,0,0,4.28,1.93,4.13,4.13,0,0,0,2.94-1.18A6.34,6.34,0,0,0,538.87,191.62Z" style="fill:#fff"></path><path d="M531.54,184.39A15.5,15.5,0,0,0,529,182.3a10.7,10.7,0,0,0-3.32-1.29,9.86,9.86,0,0,0-4.32,0,10.29,10.29,0,0,0-3.9,1.89,12.5,12.5,0,0,0-2.47,2.57,23.73,23.73,0,0,0-1.63,2.89,3.81,3.81,0,0,1,.26-.86,11.49,11.49,0,0,1,1.15-2.18,11.67,11.67,0,0,1,2.47-2.7,10.44,10.44,0,0,1,4-2,10,10,0,0,1,4.49,0,10.24,10.24,0,0,1,3.38,1.41,8.89,8.89,0,0,1,1.88,1.6A3.34,3.34,0,0,1,531.54,184.39Z" style="fill:#455a64"></path><path d="M542.73,207.22a3.51,3.51,0,0,1-1.06,1,9.24,9.24,0,0,1-3.16,1.41,9.09,9.09,0,0,1-3.45.17,3.47,3.47,0,0,1-1.38-.38,14.72,14.72,0,0,0,4.74-.17A15,15,0,0,0,542.73,207.22Z" style="fill:#455a64"></path><path d="M539.05,212.35s0,.12-.06.29a1.27,1.27,0,0,1-.6.52,8.22,8.22,0,0,1-2.47.49,7.4,7.4,0,0,1-3.49-.42c0-.11,1.56.16,3.47,0a12.38,12.38,0,0,0,2.38-.35A1.69,1.69,0,0,0,539.05,212.35Z" style="fill:#455a64"></path><path d="M489.39,211.78s0-.08-.06-.25a3.73,3.73,0,0,1,0-.73,5.42,5.42,0,0,1,4-4.88,25.24,25.24,0,0,1,4.83-.25,15.82,15.82,0,0,0,8.07-2.8,28,28,0,0,0,2.75-2.33,3.49,3.49,0,0,1-.6.77,13.15,13.15,0,0,1-2,1.78,15.25,15.25,0,0,1-8.21,3,27.68,27.68,0,0,0-4.77.22,5,5,0,0,0-3,2.14,5.39,5.39,0,0,0-.91,2.41C489.38,211.43,489.43,211.78,489.39,211.78Z" style="fill:#455a64"></path><path d="M511.4,225.16s-.19-.09-.34-.37a2.11,2.11,0,0,1,.31-2.27c.21-.23.39-.31.42-.27a6.72,6.72,0,0,0-.52,1.41A6.82,6.82,0,0,0,511.4,225.16Z" style="fill:#ffb494"></path><path d="M513.21,213.4s-.12.15-.4.2a1.83,1.83,0,0,1-1.83-.9c-.13-.25-.13-.43-.09-.44s.39.51,1,.82S513.18,213.3,513.21,213.4Z" style="fill:#ffb494"></path><path d="M527.09,217.64s-.07.21-.35.39a2.06,2.06,0,0,1-1.22.3,2.17,2.17,0,0,1-1.19-.43c-.25-.21-.34-.4-.31-.43s.64.44,1.52.47S527,217.55,527.09,217.64Z" style="fill:#ffb494"></path><path d="M502.19,233.73s-7-6.12-9.25-5.72c-5.62,1-10.56,4.66-14.93,10.29-7.47,9.62-11.19,32-16.91,61s-9.71,52.85-9.71,52.85,20.84,14.72,38.41,20.44a54.62,54.62,0,0,0,33.18-.19l1.59-63.34c-1.2-7.19,1.69-15.22-2.32-34.47a153.36,153.36,0,0,0-9-31.1Z" style="fill:#5852B8"></path><g style="opacity:0.30000000000000004"><path d="M521,310c-4.66-1.08-11.78-1.23-16.53-1.83s-7.4-1-11.06-4.06c-3.33-2.8-5.36-6.85-6.7-11-3.5-10.87-4.45-20.74-8-31.61-.26,12.72-.52,25.53,1.63,38.06.74,4.3,2,8.89,5.39,11.6,2.57,2,6,2.66,9.23,3.09,8.54,1.11,17.37.15,25.77-1.73.92-.2,3.45-.52,3.33-1.45C524,310.31,521.69,310.15,521,310Z"></path></g><path d="M478,254s3.27,41.61,8.3,48.16,52,10.36,52,10.36L544,299l-37.73-10.84s.45-31.83.22-33.9c-.39-3.56-2.86-20.4-12.35-20.4C483.2,233.81,477.22,244.94,478,254Z" style="fill:#5852B8"></path><path d="M506.26,288.11a34,34,0,0,0-3.94,2c-2,1.34-3.41,2.81-3.5,2.72s.26-.44.83-1a15.56,15.56,0,0,1,2.45-2A9.66,9.66,0,0,1,506.26,288.11Z" style="fill:#263238"></path><path d="M542.62,302.26A44.3,44.3,0,0,1,537,301a42.18,42.18,0,0,1-5.55-1.66,44,44,0,0,1,5.65,1.28A42.05,42.05,0,0,1,542.62,302.26Z" style="fill:#263238"></path><path d="M506.09,328.89s0,.1-.11.25a6.92,6.92,0,0,1-.42.67,8.8,8.8,0,0,1-6.14,3.45,10.48,10.48,0,0,1-5.17-.92,15.07,15.07,0,0,1-4.33-3,26.22,26.22,0,0,1-2.82-3.22c-.73-1-1.28-1.79-1.65-2.35a5,5,0,0,1-.55-.91,6.3,6.3,0,0,1,.67.82c.41.54,1,1.33,1.75,2.27a27.45,27.45,0,0,0,2.84,3.13,15.11,15.11,0,0,0,4.25,2.87,10.24,10.24,0,0,0,5,.92,8.54,8.54,0,0,0,3.92-1.33A10.6,10.6,0,0,0,506.09,328.89Z" style="fill:#263238"></path><path d="M506.34,331.18s0,.22-.19.58a14,14,0,0,1-.71,1.48,24.57,24.57,0,0,1-7,8.18,15.46,15.46,0,0,1-1.36.93,1.65,1.65,0,0,1-.54.27c0-.05.67-.54,1.73-1.41a30.66,30.66,0,0,0,7-8.1C505.91,331.92,506.29,331.15,506.34,331.18Z" style="fill:#263238"></path><path d="M461.1,343.67a9.22,9.22,0,0,1-.56,1.79l-1.47,4.24c-.53,1.6-1,3.05-1.41,4.28a9.37,9.37,0,0,1-.65,1.76,8.45,8.45,0,0,1,.38-1.84c.29-1.12.74-2.65,1.31-4.32s1.14-3.16,1.59-4.22A8.37,8.37,0,0,1,461.1,343.67Z" style="fill:#263238"></path><path d="M465.7,348.28c.1,0-.88,2.34-2,5.2s-1.93,5.23-2,5.19a6.53,6.53,0,0,1,.38-1.59c.29-1,.73-2.3,1.29-3.74s1.12-2.72,1.56-3.63A6.7,6.7,0,0,1,465.7,348.28Z" style="fill:#263238"></path><path d="M472.36,350.9a8.7,8.7,0,0,1-.66,1.7l-1.79,4-1.77,4a9,9,0,0,1-.81,1.65,8,8,0,0,1,.56-1.75c.39-1.06,1-2.51,1.67-4.1s1.37-3,1.89-4A8.1,8.1,0,0,1,472.36,350.9Z" style="fill:#263238"></path><path d="M478.6,354.55a8,8,0,0,1-.52,1.7c-.38,1-.94,2.44-1.62,4s-1.34,2.9-1.85,3.88a8.11,8.11,0,0,1-.9,1.53,8.56,8.56,0,0,1,.65-1.65l1.75-3.91c.64-1.46,1.21-2.79,1.71-3.92A8.27,8.27,0,0,1,478.6,354.55Z" style="fill:#263238"></path><path d="M485,357.72a9,9,0,0,1-.7,1.62c-.46,1-1.07,2.34-1.67,3.88s-1.06,2.95-1.39,4a10.1,10.1,0,0,1-.56,1.66,6.47,6.47,0,0,1,.3-1.74,34.64,34.64,0,0,1,1.29-4.05,31.88,31.88,0,0,1,1.79-3.87A7.36,7.36,0,0,1,485,357.72Z" style="fill:#263238"></path><path d="M492,360.55a10.51,10.51,0,0,1-.49,1.75c-.33,1.06-.77,2.54-1.19,4.18s-.73,3.16-.95,4.25a8.81,8.81,0,0,1-.4,1.77,7.21,7.21,0,0,1,.13-1.81,39.72,39.72,0,0,1,.84-4.3,38.08,38.08,0,0,1,1.31-4.18A7.2,7.2,0,0,1,492,360.55Z" style="fill:#263238"></path><path d="M513.49,244.15a4,4,0,0,1,.21.47c.13.35.31.8.53,1.36.45,1.19,1.09,2.91,1.85,5a159.69,159.69,0,0,1,5.15,17,127.72,127.72,0,0,1,2.86,17.5c.2,2.27.34,4.1.39,5.36,0,.61,0,1.09.07,1.46a1.93,1.93,0,0,1,0,.52,2.72,2.72,0,0,1-.07-.51c0-.37-.08-.85-.14-1.45-.1-1.27-.28-3.09-.51-5.35a141.64,141.64,0,0,0-3-17.44c-1.58-6.73-3.58-12.67-5-17-.72-2.11-1.31-3.83-1.73-5.08-.19-.57-.35-1-.46-1.39A2.9,2.9,0,0,1,513.49,244.15Z" style="fill:#263238"></path><path d="M504.28,244.82s.1.25.27.74c.09.25.19.56.32.92.06.18.13.38.19.59s.11.45.17.69c.11.5.24,1.05.38,1.65s.21,1.29.33,2,.24,1.51.32,2.35.2,1.73.27,2.68a231.46,231.46,0,0,1-.11,31.67l-.12-.16L544,298.77l.21.06-.08.2-5.65,13.56,0,.13-.14,0-2.56-.22c-6.88-.64-13.58-1.4-20-2.29s-12.67-1.92-18.5-3.32a44.23,44.23,0,0,1-8.34-2.71,10.41,10.41,0,0,1-1.84-1.1,4.53,4.53,0,0,1-.79-.73,8,8,0,0,1-.59-.88,20,20,0,0,1-1.49-3.81,114.15,114.15,0,0,1-3-14.52c-1.34-8.95-2.06-16.25-2.55-21.29-.24-2.52-.4-4.48-.5-5.81l-.11-1.51c0-.34,0-.52,0-.52l.06.52c0,.35.08.85.14,1.5.14,1.34.33,3.3.58,5.81.53,5,1.29,12.32,2.67,21.26a114.67,114.67,0,0,0,3,14.47,19.81,19.81,0,0,0,1.47,3.73,6.18,6.18,0,0,0,3.08,2.57,44.72,44.72,0,0,0,8.27,2.68c5.82,1.38,12,2.38,18.47,3.28s13.15,1.65,20,2.28l2.55.23-.2.12,5.65-13.56.13.26-37.73-10.88-.12,0v-.13a238.55,238.55,0,0,0,.25-31.64c-.06-.95-.18-1.83-.25-2.67s-.18-1.62-.3-2.35-.19-1.4-.31-2l-.36-1.65c-.05-.25-.1-.48-.15-.7s-.13-.41-.18-.59l-.3-.92C504.35,245.08,504.28,244.82,504.28,244.82Z" style="fill:#263238"></path><path d="M499,235.56a11.92,11.92,0,0,0-3.91-1.43,13.74,13.74,0,0,0-9.53,2.45,16.83,16.83,0,0,0-4,3.82,18.24,18.24,0,0,0-2.25,3.94,26.26,26.26,0,0,0-1.19,4s0-.1,0-.29,0-.48.11-.84a15.22,15.22,0,0,1,.83-3,17.45,17.45,0,0,1,2.21-4,16.8,16.8,0,0,1,4.07-3.93,13.63,13.63,0,0,1,9.79-2.4,9.06,9.06,0,0,1,2.93,1,6.91,6.91,0,0,1,.71.46C498.91,235.48,499,235.55,499,235.56Z" style="fill:#263238"></path><path d="M540.34,308a68.29,68.29,0,0,1-10.07-2.26A68.29,68.29,0,0,1,540.34,308Z" style="fill:#263238"></path><path d="M508.62,361.65a8.87,8.87,0,0,1,.35,2,31.3,31.3,0,0,1,.18,4.81,32.81,32.81,0,0,1-.53,4.79,8.15,8.15,0,0,1-.5,1.94,13,13,0,0,1,.23-2c.16-1.22.34-2.9.41-4.76s0-3.56-.06-4.78A12.89,12.89,0,0,1,508.62,361.65Z" style="fill:#263238"></path><path d="M517.27,360.32a7.73,7.73,0,0,1,.46,1.87,32.8,32.8,0,0,1,.28,9.28,7.9,7.9,0,0,1-.35,1.9,11.16,11.16,0,0,1,.07-1.92c.07-1.18.13-2.82.08-4.62s-.21-3.42-.35-4.6A13.09,13.09,0,0,1,517.27,360.32Z" style="fill:#263238"></path><path d="M523,360l-.19,0-.57.07-2.16.2-1.57.14c-.57,0-1.2.05-1.87.07-1.34,0-2.87.14-4.56.06l-2.66-.05c-.92,0-1.88-.13-2.87-.19-2-.1-4.09-.41-6.31-.68A101.55,101.55,0,0,1,486,356.43,100,100,0,0,1,472.5,351c-2-1-3.89-2-5.59-3-.85-.51-1.7-1-2.47-1.47l-2.23-1.45c-1.43-.9-2.63-1.85-3.72-2.64-.54-.4-1.05-.76-1.5-1.11l-1.22-1L454.1,339l-.42-.37c-.1-.09-.15-.13-.14-.14a1,1,0,0,1,.16.11l.45.34,1.72,1.34,1.23,1c.46.35,1,.7,1.52,1.09,1.09.77,2.31,1.7,3.75,2.58l2.22,1.43c.78.49,1.63.94,2.48,1.44,1.7,1,3.6,2,5.59,3a94.64,94.64,0,0,0,27.59,8.56c2.21.29,4.31.6,6.29.72,1,.07,1.94.18,2.86.21l2.64.08c1.69.09,3.21,0,4.55,0l1.87,0,1.57-.11,2.17-.13.56,0Z" style="fill:#263238"></path><g style="opacity:0.30000000000000004"><path d="M485.08,344.1l-3.54-.65a29.28,29.28,0,0,0,5.49,3.49,9.93,9.93,0,0,0,6.35.81,11,11,0,0,0,5.31-3.52,21,21,0,0,0,4.48-7.77c-4.22,4.36-6.63,6.33-10.12,7.33A17.45,17.45,0,0,1,485.08,344.1Z"></path></g><g style="opacity:0.30000000000000004"><path d="M502.79,288.34a14.36,14.36,0,0,0-5.44,1.19,7.16,7.16,0,0,0-3.23,3.53c-.23.56-.35,1.29.1,1.68a1.36,1.36,0,0,0,1.2.18c1.8-.39,3.07-1.92,4.41-3.17a15,15,0,0,1,6.32-3.43l.11-.21C505.21,288.2,503.83,288.26,502.79,288.34Z"></path></g><path d="M518.06,225.35c0,.06-.39.08-1-.09a4.79,4.79,0,0,1-2-1.25,4.69,4.69,0,0,1-1.17-2c-.14-.59-.1-1,0-1a10.13,10.13,0,0,0,1.58,2.66A10.88,10.88,0,0,0,518.06,225.35Z" style="fill:#263238"></path><path d="M657.94,461.49v7.31s-6.25-.53-6.43,5.11h6.87l5.55-4.23.53-9.51Z" style="fill:#455a64"></path><path d="M639,455.57s0,4-3.34,9.9l-2.41,3.45,2.84,7.12s4.43.24,4.77,3.12h-7.15l-5.19-8.28a11.48,11.48,0,0,0,1.16-7.14,56.62,56.62,0,0,0-2.42-9.56l5-1.65Z" style="fill:#455a64"></path><path d="M635.13,427.38a14.42,14.42,0,0,0-2.91-2,9.79,9.79,0,0,0-12.38,14.35l2.36-1.86a3.7,3.7,0,0,1,.42-3.33A10.82,10.82,0,0,1,625,432c1.89-1.57,4.23-3.23,6.6-2.56.84.24,1.58.76,2.43.95a1.78,1.78,0,0,0,2.17-1C636.44,428.67,635.77,427.92,635.13,427.38Z" style="fill:#455a64"></path><path d="M620.52,438.91a7.17,7.17,0,0,1,4.76-2.7,39.69,39.69,0,0,1,5.6-.35c3.74.1,23.14,2.59,23.14,2.59l10.27-2.59,8.45-6.33s8.16-5.09,11.9-4.71a16.54,16.54,0,0,1,6.82,2.5l2,2.49,8.35,3s-.86,3.26-2.21,4.22-3.55,1.44-5.86,2-7,.48-9.12,3.55a92.28,92.28,0,0,1-7.1,8.26s-3.65,8.54-7.39,10.18-9.51,3.55-14.31,2.3-21.5-8.74-21.89-8.83-3.93-2.5-6.24,1.05-4.22,7.4-11.33,10.08c0,0-2.78,1.35-3.17,3.75s-1.82,9.79-1.82,9.79-3-1.34-3.17-3.93.87-2.69.87-2.69l.76-9.51a9.08,9.08,0,0,0,4.71-3.55,29.84,29.84,0,0,0,3.3-5.58,78,78,0,0,1-.51-8.66C617.41,443.26,619.09,440.72,620.52,438.91Z" style="fill:#455a64"></path><path d="M661.77,453.76s3.25,9,7,12,10.84,13.36,10.84,13.36h9.26s-1.72-3.21-4.9-3.82c0,0-4.21-1.88-4.86-4.29s-5.87-20.81-5.87-20.81-6.37-5.29-8.83-1.71S661.77,453.76,661.77,453.76Z" style="fill:#455a64"></path><path d="M683.84,425.33a4.18,4.18,0,0,0-4.74-1,6.49,6.49,0,0,0-2.49,2.28,32.5,32.5,0,0,1-2,2.77,1.16,1.16,0,0,0-.37.59c-.06.36.23.67.49.92a5.54,5.54,0,0,0,1.08.85c1.31.72,2.93.25,4.32-.32a8.22,8.22,0,0,0,2.19-1.21,3.07,3.07,0,0,0,1.17-2.15C683.37,428.18,684,425.47,683.84,425.33Z" style="fill:#455a64"></path><path d="M692.64,430s-.19-.09-.47-.17a1,1,0,0,0-1,.18,5,5,0,0,0-.72.91c-.19.26-.32.41-.37.38s0-.22.13-.51a2.71,2.71,0,0,1,.71-1.09,1.3,1.3,0,0,1,.73-.28,1.19,1.19,0,0,1,.61.15C692.6,429.74,692.68,430,692.64,430Z" style="fill:#263238"></path><path d="M691.8,429.59a.75.75,0,0,0-.72.27,1,1,0,0,0-.29.79.63.63,0,0,0,0,.27h0a.86.86,0,0,0,.26.34.61.61,0,0,0,.27.15.59.59,0,0,0,.6-.29,1.43,1.43,0,0,0,.17-.68C692.16,430.12,692.11,429.71,691.8,429.59Z" style="fill:#263238"></path><path d="M700.68,432.36a1.06,1.06,0,0,0-.88.27,1,1,0,0,0-.3.87.21.21,0,0,0,.09.17c.1.05.2-.05.29-.11a.48.48,0,0,1,.45,0c.1,0,.18.17.13.27a.55.55,0,0,1-.17.13.45.45,0,0,0-.09.57,1.24,1.24,0,0,0,.44.44.64.64,0,0,0,.45.16c.21,0,.32-.27.4-.47.21-.56.43-1.11.64-1.66a.44.44,0,0,0,0-.1c0-.06-.06-.11-.11-.14a2.41,2.41,0,0,0-1.45-.44" style="fill:#263238"></path><path d="M682.32,430.19a5,5,0,0,1-2.11,1.33,8.26,8.26,0,0,1-2.65.74,3.55,3.55,0,0,1-1.64-.27,5,5,0,0,1-1.42-1.07A1.29,1.29,0,0,1,674,430a1.32,1.32,0,0,1,.46-.84,15,15,0,0,0,1-1.24,21.2,21.2,0,0,1,1.61-2.19,5.7,5.7,0,0,1,1.4-1.2,1.51,1.51,0,0,1,.63-.26,7.79,7.79,0,0,0-1.82,1.64c-.48.58-1,1.36-1.52,2.21a11.27,11.27,0,0,1-1,1.29c-.19.21-.36.4-.35.59a.91.91,0,0,0,.35.6,5,5,0,0,0,1.3,1,3.23,3.23,0,0,0,1.46.26,8.64,8.64,0,0,0,2.56-.64,11.86,11.86,0,0,0,1.64-.74A4.32,4.32,0,0,1,682.32,430.19Z" style="fill:#263238"></path><path d="M674.42,443.14c-1.74-2-8.61-8.42-8.61-8.42l-1.52,1.14-9.87,2.49-1.65-.06,4.4,25.29a4.73,4.73,0,0,0,4.2,0L656.72,442l-.75-3.28,8.49-2s8.41,7.45,10,11.28a37.8,37.8,0,0,1,1.9,5.41l1.22-2.53S676.17,445.12,674.42,443.14Z" style="fill:#5852B8"></path><path d="M667.35,464.34a5.87,5.87,0,0,1-1.09-1.35,33.21,33.21,0,0,1-2.17-3.59,34.77,34.77,0,0,1-1.72-3.83,6.55,6.55,0,0,1-.49-1.67c.11,0,1,2.43,2.55,5.31S667.44,464.28,667.35,464.34Z" style="fill:#263238"></path><path d="M662.84,453.44a3,3,0,0,1-.79-1.84,2.9,2.9,0,0,1,.2-2c.11,0,0,.89.19,1.93S662.94,453.39,662.84,453.44Z" style="fill:#263238"></path><path d="M664,454.35c-.1.06-.48-.44-.74-1.16s-.29-1.35-.19-1.37.31.55.56,1.23S664.1,454.3,664,454.35Z" style="fill:#263238"></path><path d="M631.78,450.44c-.12,0,0-1.22-.32-2.65s-.92-2.48-.82-2.55a4.57,4.57,0,0,1,1.21,2.46A4.51,4.51,0,0,1,631.78,450.44Z" style="fill:#455a64"></path><path d="M630.67,452c-.1-.06.2-.66.27-1.45s-.1-1.43,0-1.47.48.61.39,1.51S630.75,452,630.67,452Z" style="fill:#455a64"></path><path d="M638.37,429.87c-.07,0,0-.34-.1-.83a4.68,4.68,0,0,0-.68-1.82,4.56,4.56,0,0,0-1.39-1.34c-.43-.26-.74-.36-.73-.43s.35,0,.86.18a3.76,3.76,0,0,1,1.59,1.38,3.71,3.71,0,0,1,.62,2C638.54,429.56,638.41,429.88,638.37,429.87Z" style="fill:#263238"></path><path d="M640.61,428.63a10.57,10.57,0,0,0-.81-2.17,10.91,10.91,0,0,0-1.53-1.73,2.88,2.88,0,0,1,1.87,1.53A2.93,2.93,0,0,1,640.61,428.63Z" style="fill:#263238"></path></g><g id="freepik--character-1--inject-19"><path d="M132.81,439.53l-11.07,17.82s14.4,17.24,12.67,20.74L99.08,457.86l16.11-28.48Z" style="fill:#5852B8"></path><path d="M111.69,449.57a1.66,1.66,0,0,0-1.94,1.07,1.59,1.59,0,0,0,1,1.93,1.75,1.75,0,0,0,2-1.14,1.65,1.65,0,0,0-1.32-1.89" style="fill:#e0e0e0"></path><path d="M99.08,457.86l1.74-2.81L134,475.49s1.18,1.59.37,2.6Z" style="fill:#263238"></path><path d="M122.41,457.5c-.1.17-1-.25-2.17-.18s-2,.54-2.16.38.71-1,2.12-1.07S122.54,457.36,122.41,457.5Z" style="fill:#263238"></path><path d="M125.24,461.15c0,.19-1,.06-2,.45s-1.62,1.07-1.79,1,.29-1.15,1.54-1.61S125.33,461,125.24,461.15Z" style="fill:#263238"></path><path d="M124.81,466.79c-.18-.05.07-1.05,1.06-1.74s2-.6,2-.42-.79.41-1.59,1S125,466.88,124.81,466.79Z" style="fill:#263238"></path><path d="M124.49,453.16c-.17.11-.82-.58-1.83-1.07s-2-.62-2-.82,1.08-.39,2.26.2S124.65,453.07,124.49,453.16Z" style="fill:#263238"></path><path d="M131.2,446.85,130,467.8s20.89,8.25,21.05,12.14l-40.71-.86.53-32.71Z" style="fill:#5852B8"></path><path d="M117.53,465.77a1.67,1.67,0,0,0-1.19,1.87,1.61,1.61,0,0,0,1.85,1.2,1.77,1.77,0,0,0,1.25-2,1.66,1.66,0,0,0-2.06-1" style="fill:#e0e0e0"></path><path d="M110.43,479.08l.18-3.29,39,2s1.79.83,1.56,2.1Z" style="fill:#263238"></path><path d="M130.74,467.61c0,.19-1,.26-2,.88s-1.53,1.45-1.71,1.36.14-1.22,1.35-2S130.79,467.42,130.74,467.61Z" style="fill:#263238"></path><path d="M135,469.46c0,.19-.83.51-1.52,1.34s-.91,1.71-1.11,1.7-.3-1.14.58-2.15S135,469.27,135,469.46Z" style="fill:#263238"></path><path d="M137.29,474.62c-.18,0-.43-1,.1-2s1.47-1.49,1.55-1.32-.5.74-.93,1.63S137.49,474.61,137.29,474.62Z" style="fill:#263238"></path><path d="M130.49,462.8c-.09.18-1-.11-2.12-.06s-2,.39-2.11.22.76-.87,2.08-.91S130.59,462.65,130.49,462.8Z" style="fill:#263238"></path><path d="M113.4,317.56s-2.53,11.5-1.41,13.19a54.27,54.27,0,0,1,3.09,7l-1.69,51.89-5,76.29h24.23L143,398.67a54.81,54.81,0,0,0,5.05-11.5c1.4-5.33,9.68-58.35,9.68-58.35V308.39Z" style="fill:#263238"></path><path d="M168.31,310s-5.06,69.51-6.74,75.68S125.43,455,125.43,455l-20.79-10.21,27.57-66.63v-64.3Z" style="fill:#263238"></path><path d="M160.26,316a1.65,1.65,0,0,1,0,.39c0,.29-.09.67-.16,1.15-.16,1-.38,2.52-.66,4.41-.61,3.86-1.48,9.39-2.54,16.21s-2.4,15-3.84,24c-.73,4.53-1.46,9.27-2.31,14.19a85.38,85.38,0,0,1-3.77,15c-1.83,5-4.43,9.52-5.31,14.43-1,4.86-1.77,9.61-2.48,14.13-1.37,9.06-2.48,17.23-3.42,24.1s-1.69,12.41-2.27,16.25c-.29,1.91-.52,3.4-.7,4.4-.09.48-.16.86-.22,1.14a2.08,2.08,0,0,1-.09.39,2.94,2.94,0,0,1,0-.4c0-.28.1-.66.17-1.15.14-1,.35-2.52.61-4.41.5-3.87,1.22-9.42,2.11-16.27s2-15.05,3.31-24.12c.7-4.52,1.41-9.28,2.46-14.17.89-5,3.52-9.57,5.32-14.49a86.66,86.66,0,0,0,3.76-14.89c.85-4.91,1.59-9.66,2.33-14.18,1.49-9,2.82-17.17,3.94-24s2.06-12.34,2.7-16.19c.33-1.89.58-3.36.76-4.39.09-.49.16-.86.21-1.15A2.09,2.09,0,0,1,160.26,316Z" style="fill:#455a64"></path><path d="M110.93,425.19a10.42,10.42,0,0,1,0,1.61c0,1-.1,2.52-.21,4.36-.2,3.69-.57,8.78-1,14.39s-.79,10.7-1,14.39c-.12,1.77-.21,3.24-.29,4.36a10.11,10.11,0,0,1-.16,1.59,8.29,8.29,0,0,1,0-1.6c0-1,0-2.53.13-4.37.14-3.69.46-8.79.88-14.41s.85-10.61,1.15-14.37c.15-1.77.27-3.24.37-4.36A8.36,8.36,0,0,1,110.93,425.19Z" style="fill:#455a64"></path><path d="M134.13,164.58l.87,38.71c.14,6.59,1.71,16.23,12.1,15.52h0c9-1.29,11.07-9.91,10.93-16.05-.07-2.91-.12-5.34-.11-5.64,0,0,9.84-1.15,10.33-10.92.24-4.72-.06-14.49-.44-23.32a18.22,18.22,0,0,0-17.52-17.43l-.94,0C139.16,145.63,133.64,154.4,134.13,164.58Z" style="fill:#b78876"></path><path d="M157.94,197a22.8,22.8,0,0,1-12.6-4.11s2.74,7.15,12.53,6.64Z" style="fill:#995037"></path><path d="M155.78,178.66a10.3,10.3,0,0,1,2.46-.34c.38,0,.75-.09.82-.35a2,2,0,0,0-.21-1.15c-.33-.94-.67-1.93-1-3-1.42-4.22-2.43-7.68-2.26-7.74s1.46,3.32,2.87,7.54l1,3a2.19,2.19,0,0,1,.14,1.51,1,1,0,0,1-.65.54,2.69,2.69,0,0,1-.66.06A9.21,9.21,0,0,1,155.78,178.66Z" style="fill:#263238"></path><path d="M134.65,171.85c-.16-.08-6.64-2.24-6.68,4.45s6.68,5.35,6.7,5.16S134.65,171.85,134.65,171.85Z" style="fill:#b78876"></path><path d="M132.64,178.91s-.12.08-.32.17a1.11,1.11,0,0,1-.87,0,2.9,2.9,0,0,1-1.32-2.59,3.89,3.89,0,0,1,.34-1.67,1.36,1.36,0,0,1,.88-.89.6.6,0,0,1,.69.32c.09.19,0,.33.08.34s.14-.11.09-.39a.75.75,0,0,0-.26-.42.92.92,0,0,0-.64-.18,1.67,1.67,0,0,0-1.23,1,3.9,3.9,0,0,0-.41,1.87,3,3,0,0,0,1.68,2.9,1.3,1.3,0,0,0,1.07-.17C132.62,179.07,132.66,178.92,132.64,178.91Z" style="fill:#995037"></path><path d="M154.36,183.34c.07-.17-1.25-.51-2.21-1.71a7.47,7.47,0,0,1-1-1.71c-.21-.48-.37-.78-.44-.76s0,.36.09.88a4.89,4.89,0,0,0,.92,1.92,4,4,0,0,0,1.76,1.25C154,183.4,154.35,183.4,154.36,183.34Z" style="fill:#263238"></path><path d="M180.44,153.68a1.54,1.54,0,0,0-.77-.89,4.77,4.77,0,0,0-2.51-.32,14.07,14.07,0,0,1-7.4-2,33,33,0,0,0-3.55-4c-3.06-3-5.56-4.93-8.11-5.86a22.67,22.67,0,0,0-12.11-.52c-3.36,1-6.31,3.86-6.66,7.35-2-1.54-4.81-1.43-7.09-.42l-.06,0c-2.55,1-3.92,3.78-4.59,6.44s-.89,5.48-2.2,7.88c-.28.5-.6,1.11-.33,1.61a1.09,1.09,0,0,0,1.16.46,3.28,3.28,0,0,0,1.18-.59c-.27.7-.53,1.4-.79,2.1a6.06,6.06,0,0,0,2.8-.29,59.22,59.22,0,0,0,2.07,6.87,3.93,3.93,0,0,1,2.75.58c.94.78,1.39,2.29,2.87,1.66.76-.32,1.4-2,1.63-2.73a38.21,38.21,0,0,0,1.08-16.16,12.31,12.31,0,0,1,3.68-2.85l-.11.11c2.69-1,5.73-2.08,8.36-.89,2,.92,3.29,3,4.85,4.56a15.3,15.3,0,0,0,11.07,4.66c.24,2.74.15,6.62.39,9.36l2.15-4.48v0c.18-.33.33-.66.47-1l.05-.1h0c.23-.53.44-1.06.72-1.59l0,0a1.71,1.71,0,0,0,2.42-2.38,3.8,3.8,0,0,0-.85-.8,2.72,2.72,0,0,0,2.6.58,2.13,2.13,0,0,0,1.43-2.16,1.8,1.8,0,0,0-1.13-1.41,6.13,6.13,0,0,0,3.45-.89A1.77,1.77,0,0,0,180.44,153.68Z" style="fill:#263238"></path><path d="M142.44,148.47a7.73,7.73,0,0,0-.95.93,6.9,6.9,0,0,0-1.38,3.28,12.29,12.29,0,0,0-.17,2.49c0,.9.14,1.86.24,2.87a27,27,0,0,1,.19,3.19,12.22,12.22,0,0,1-.16,1.69,3.61,3.61,0,0,1-.63,1.66,1.49,1.49,0,0,1-1.36.51,2.22,2.22,0,0,1-1.27-.65,5.06,5.06,0,0,1-1-2.45l.2,0a7.82,7.82,0,0,1-1.11,2.08,2.93,2.93,0,0,1-1.86,1.1,1.92,1.92,0,0,1-1-.14,1.66,1.66,0,0,1-.71-.65,1.68,1.68,0,0,1-.23-.86,1.18,1.18,0,0,1,.28-.76l.11.08a6.28,6.28,0,0,1-2,1.65,5.81,5.81,0,0,1-.64.27l-.23.07.22-.1c.14-.07.35-.16.62-.31a6.53,6.53,0,0,0,2-1.66l.11.09a1.24,1.24,0,0,0,0,1.45,1.54,1.54,0,0,0,.64.57,1.77,1.77,0,0,0,.92.12,2.71,2.71,0,0,0,1.72-1,8,8,0,0,0,1.07-2l.13-.32.08.33a4.78,4.78,0,0,0,1,2.34,1.94,1.94,0,0,0,1.13.59,1.26,1.26,0,0,0,1.15-.43,3.39,3.39,0,0,0,.58-1.56,10.37,10.37,0,0,0,.16-1.66,24.91,24.91,0,0,0-.17-3.16c-.1-1-.19-2-.21-2.89a11.75,11.75,0,0,1,.19-2.51,7,7,0,0,1,1.47-3.32A3.92,3.92,0,0,1,142.44,148.47Z" style="fill:#455a64"></path><path d="M172.91,156.9l-.07.07-.24.18a2.3,2.3,0,0,1-.4.28,5.15,5.15,0,0,1-.59.34,8.57,8.57,0,0,1-4.14.89,11.13,11.13,0,0,1-6-2,19.35,19.35,0,0,1-5.25-5.65c-.75-1.16-1.37-2.35-2-3.44a12.5,12.5,0,0,0-2.28-2.89,6.73,6.73,0,0,0-2.87-1.61,4.68,4.68,0,0,0-1.48-.12,5.79,5.79,0,0,0-1.35.31,5.72,5.72,0,0,0-2,1.29,5.63,5.63,0,0,0-1.05,1.47,6.42,6.42,0,0,0-.45,1.48v-.1l0-.3a5.1,5.1,0,0,1,.33-1.12,5.47,5.47,0,0,1,1-1.51,5.65,5.65,0,0,1,2-1.36,5.54,5.54,0,0,1,1.39-.33,4.82,4.82,0,0,1,1.55.11,6.81,6.81,0,0,1,3,1.63,13.08,13.08,0,0,1,2.33,2.93c.69,1.1,1.31,2.29,2,3.44a19.17,19.17,0,0,0,5.18,5.59,10.94,10.94,0,0,0,5.84,2,8.91,8.91,0,0,0,4.11-.81A15.3,15.3,0,0,0,172.91,156.9Z" style="fill:#455a64"></path><path d="M173.65,152.59a1.54,1.54,0,0,1-.34.25,7.14,7.14,0,0,1-1,.56,9.58,9.58,0,0,1-1.62.6,11.56,11.56,0,0,1-2.08.35,11.27,11.27,0,0,1-2.12-.07,10.34,10.34,0,0,1-1.68-.37,7.92,7.92,0,0,1-1.08-.42,1.89,1.89,0,0,1-.37-.21s.56.22,1.49.47a12.13,12.13,0,0,0,1.67.32,11.69,11.69,0,0,0,2.07.05,12.24,12.24,0,0,0,2.05-.32,13.12,13.12,0,0,0,1.61-.54C173.12,152.88,173.63,152.55,173.65,152.59Z" style="fill:#455a64"></path><path d="M148.62,170.67a1.41,1.41,0,0,0,1.43,1.34,1.35,1.35,0,0,0,1.39-1.34,1.41,1.41,0,0,0-1.43-1.35A1.35,1.35,0,0,0,148.62,170.67Z" style="fill:#263238"></path><path d="M145.53,167c.18.18,1.21-.67,2.72-.75s2.67.62,2.82.43-.12-.41-.62-.74a3.94,3.94,0,0,0-2.27-.57,3.78,3.78,0,0,0-2.16.83C145.58,166.61,145.44,167,145.53,167Z" style="fill:#263238"></path><path d="M162.87,170.15a1.41,1.41,0,0,0,1.43,1.35,1.34,1.34,0,0,0,1.38-1.35,1.41,1.41,0,0,0-1.43-1.35A1.35,1.35,0,0,0,162.87,170.15Z" style="fill:#263238"></path><path d="M160.4,166.85c.19.17,1.21-.67,2.73-.75s2.66.62,2.82.43-.12-.41-.62-.74a4,4,0,0,0-2.27-.57,3.75,3.75,0,0,0-2.16.83C160.45,166.43,160.31,166.77,160.4,166.85Z" style="fill:#263238"></path><path d="M159.7,161.75c.17.41,1.67.13,3.46.25s3.26.53,3.47.15c.1-.19-.17-.56-.77-.93a5.77,5.77,0,0,0-2.61-.76,5.85,5.85,0,0,0-2.67.46C159.94,161.22,159.63,161.56,159.7,161.75Z" style="fill:#263238"></path><path d="M145.16,161.56c.36.33,1.69-.1,3.3-.2s3,.07,3.28-.31c.13-.18-.1-.51-.72-.81a5.65,5.65,0,0,0-2.71-.42,5.52,5.52,0,0,0-2.59.83C145.17,161,145,161.4,145.16,161.56Z" style="fill:#263238"></path><path d="M128.9,190c-2.88.77-5.3,2.67-7.63,4.52l-10.06,8c-1.95,1.54-4,3.2-4.87,5.51-1.29,3.33.24,7.32,3,9.51a13.77,13.77,0,0,0,10.16,2.36,36,36,0,0,0,10.13-3.32l8.24-24.56C136.25,189.59,131.77,189.27,128.9,190Z" style="fill:#455a64"></path><g style="opacity:0.30000000000000004"><path d="M131.44,190.54c-7.09.72-14.79,8.44-20.63,13.05,2.36.54,6.08-1.79,8.26-2.85,5.46-2.64,9.52-7,16.72-8.23l2.13-.46C136.69,190.9,133,190.45,131.44,190.54Z"></path></g><path d="M135.55,192.48a10.48,10.48,0,0,1-1.08.22,12.16,12.16,0,0,0-2.77,1c-2.25,1.11-5.14,3.08-8.42,5.1a46,46,0,0,1-8.82,4.47,23,23,0,0,1-2.89.83,4,4,0,0,1-1.09.16,7.9,7.9,0,0,1,1-.31c.68-.2,1.65-.49,2.83-1a52.56,52.56,0,0,0,8.7-4.55,97.55,97.55,0,0,1,8.51-5,11.29,11.29,0,0,1,2.87-.9,4.86,4.86,0,0,1,.82-.07A.81.81,0,0,1,135.55,192.48Z" style="fill:#263238"></path><path d="M201,317.14s2,11.82,1.48,13.62-3.15,4.32-4.5,4.23h-1s-2.89,1.53-5.5.53c0,0-1.89.37-2.7-.27s-7.09-4.23-7.09-4.23a3.12,3.12,0,0,1,3.31-1.44,36.63,36.63,0,0,1,3.78,1.34l1.62-1.52,6.31-9.1Z" style="fill:#b78876"></path><path d="M201.74,321.78l-.73-4.64-3.16-8-9.16,8-1.19,1.94s.47,5,1.93,5.13,1.64,4.58,1,5.2,9.77,0,9.77,0Z" style="fill:#b78876"></path><path d="M187.5,319.08,184.39,326a1.54,1.54,0,0,0,2,1.18c1.62-.45,3.06-3,3.06-3l1.8-5.13Z" style="fill:#b78876"></path><path d="M168,264.34c0-1.23-8.68-55.57-8.68-55.57-1.8-1.78-24.9-16.23-24.9-16.23h0l-15.45,20s-4.82,16.64-6.44,28.74c-1.06,8-6,46-7.45,62.09a12.23,12.23,0,0,0,5.06,11.09l1.88.23.4,4.81c16.45.7,56.31-5.84,56.81-5.52S167.91,268.74,168,264.34Z" style="fill:#455a64"></path><path d="M146.25,210c8.52-3.62,11.92,2.13,13.24,3.13s20,50.55,20,50.55l21,49.26-11.81,4.25s-22.42-24.45-29.11-34.69c-6.55-10-26.33-51-26.33-51C130.7,225,137.73,213.57,146.25,210Z" style="fill:#455a64"></path><path d="M169.37,308a4.36,4.36,0,0,1-.57.14l-1.65.33c-1.43.29-3.5.66-6.08,1.07-5.14.84-12.29,1.77-20.2,2.6s-15.08,1.46-20.27,1.95l-6.14.56-1.67.14a4.35,4.35,0,0,1-.59,0,2.83,2.83,0,0,1,.58-.11l1.66-.22c1.45-.18,3.54-.42,6.13-.69l20.26-2.07c7.9-.83,15-1.71,20.2-2.48,2.57-.37,4.66-.69,6.09-.93l1.66-.26A2.16,2.16,0,0,1,169.37,308Z" style="fill:#263238"></path><path d="M158.46,210.84a6.09,6.09,0,0,1-1-.45c-.67-.32-1.61-.81-2.76-1.44a85,85,0,0,1-8.62-5.58c-3.23-2.37-6-4.65-8.1-6.29l-2.42-2a6.52,6.52,0,0,1-.85-.76,5.6,5.6,0,0,1,1,.63c.6.43,1.45,1.06,2.5,1.85,2.09,1.58,4.94,3.82,8.16,6.19s6.27,4.32,8.52,5.65c1.13.67,2,1.2,2.69,1.55A5.72,5.72,0,0,1,158.46,210.84Z" style="fill:#263238"></path><path d="M131.86,200.74a5.91,5.91,0,0,1-.94.75c-.31.22-.69.51-1.11.85s-.93.72-1.44,1.17a36.8,36.8,0,0,0-7.11,8,37.91,37.91,0,0,0-4.49,9.71c-.37,1.32-.67,2.39-.83,3.15a6.15,6.15,0,0,1-.32,1.15,6.54,6.54,0,0,1,.16-1.19c.11-.76.37-1.85.71-3.19a35,35,0,0,1,4.43-9.85,33.86,33.86,0,0,1,7.26-8c.53-.44,1-.82,1.49-1.13s.83-.6,1.16-.8A7.88,7.88,0,0,1,131.86,200.74Z" style="fill:#263238"></path><path d="M161.48,218.69c-.07,0-.26-.86-.87-2.15a12.54,12.54,0,0,0-3.38-4.32,12.4,12.4,0,0,0-4.94-2.4c-1.39-.33-2.28-.33-2.28-.4s.22-.06.63-.06a9.8,9.8,0,0,1,1.71.17,11.52,11.52,0,0,1,8.53,6.9,9.08,9.08,0,0,1,.52,1.63C161.49,218.46,161.51,218.69,161.48,218.69Z" style="fill:#263238"></path><path d="M125.62,319.69a6.41,6.41,0,0,1-.84-2.87,6.57,6.57,0,0,1,.13-3c.12,0,.08,1.33.28,2.94S125.73,319.65,125.62,319.69Z" style="fill:#263238"></path><path d="M133.13,318.36a9.4,9.4,0,0,1-.45-2.67,9.14,9.14,0,0,1-.05-2.7,9.1,9.1,0,0,1,.46,2.67A8.56,8.56,0,0,1,133.13,318.36Z" style="fill:#263238"></path><path d="M141.9,317a9,9,0,0,1-.63-2.65,9.18,9.18,0,0,1-.23-2.71,8.88,8.88,0,0,1,.63,2.64A9.24,9.24,0,0,1,141.9,317Z" style="fill:#263238"></path><path d="M149.56,316.51a22.93,22.93,0,0,1-.54-2.61,21.22,21.22,0,0,1-.63-2.58,5.66,5.66,0,0,1,1,2.49A5.5,5.5,0,0,1,149.56,316.51Z" style="fill:#263238"></path><path d="M157.34,315.16a13.15,13.15,0,0,1-.82-4.53,13.15,13.15,0,0,1,.82,4.53Z" style="fill:#263238"></path><path d="M164.32,314.84c-.12,0-.16-1.3-.44-2.86s-.69-2.79-.58-2.84a9,9,0,0,1,1,5.7Z" style="fill:#263238"></path><path d="M153.55,280.9a4,4,0,0,1,.12.93c0,.3,0,.67,0,1.1a13,13,0,0,1-.07,1.46,20.68,20.68,0,0,1-.65,3.75,22.29,22.29,0,0,1-4.25,8.24,20.1,20.1,0,0,1-2.67,2.7,14.28,14.28,0,0,1-1.15.9,7.62,7.62,0,0,1-.92.61,3.18,3.18,0,0,1-.82.45c0-.07,1.11-.75,2.7-2.18a23,23,0,0,0,2.57-2.72,23.13,23.13,0,0,0,4.17-8.11,22.35,22.35,0,0,0,.73-3.67C153.58,282.24,153.47,280.9,153.55,280.9Z" style="fill:#263238"></path><g style="opacity:0.30000000000000004"><path d="M146.23,298.51l.26-.21a21,21,0,0,0,6.78-12A24,24,0,0,0,146.23,298.51Z"></path></g><path d="M144.27,311.49a10,10,0,0,1-1.61-4.34,9.93,9.93,0,0,1,.12-4.64,41,41,0,0,0,.29,4.57A41.79,41.79,0,0,0,144.27,311.49Z" style="fill:#263238"></path><path d="M156.94,279.48c.05.11-.6.49-1.45.87s-1.58.59-1.63.48.61-.49,1.46-.86A3.77,3.77,0,0,1,156.94,279.48Z" style="fill:#263238"></path><path d="M136.3,231.39s0,.07.11.22l.26.66,1,2.56,3.44,9.43c1.48,4,3.24,8.71,5.4,13.88a121.18,121.18,0,0,0,8.09,16.29,75.87,75.87,0,0,0,5.5,7.63q2.83,3.6,5.5,6.86c3.55,4.35,6.78,8.22,9.5,11.48l6.43,7.72,1.73,2.11.44.56c.1.12.15.19.14.2a.86.86,0,0,1-.18-.17l-.48-.52-1.8-2.05c-1.58-1.83-3.81-4.43-6.56-7.61s-6-7.08-9.59-11.41c-1.78-2.17-3.64-4.46-5.53-6.85a76.69,76.69,0,0,1-5.55-7.68A116.74,116.74,0,0,1,146,258.32c-2.14-5.19-3.87-9.94-5.3-13.93s-2.53-7.25-3.29-9.5l-.86-2.59c-.09-.27-.16-.49-.21-.68A.7.7,0,0,1,136.3,231.39Z" style="fill:#263238"></path></g><g id="freepik--character-2--inject-19"><path d="M337.6,170.83l32.66-22.1s1.19.39.35,2.32-6.14,5.75-6.14,5.75,1.27.94.84,3.36a2.3,2.3,0,0,1,1.21,2.08,4.28,4.28,0,0,1,.37,1.74,38.35,38.35,0,0,1-.8,5.3l-3.88,1.93s-1.26-.16-1.09-1.31c0,0-1.32,1-2,.41a2.37,2.37,0,0,1-.74-1.36s-3.14,4.71-7.75,4.53l-6.75,5.59Z" style="fill:#ffbe9d"></path><path d="M207.56,422.75,184,438.85l19.64,29.65c2.71-2.05-2.69-22.32-2.69-22.32l16.07-10.42Z" style="fill:#5852B8"></path><g style="opacity:0.6000000000000001"><path d="M197.11,437.33a1.46,1.46,0,0,0-1.94.07,1.4,1.4,0,0,0,.07,1.92,1.52,1.52,0,0,0,2-.09,1.45,1.45,0,0,0-.28-2" style="fill:#fff"></path></g><g style="opacity:0.6000000000000001"><path d="M184,438.85l2.45-1.51,17.92,29s.3,1.7-.73,2.17Z" style="fill:#fff"></path></g><path d="M201,446.8c-.15.1-.69-.58-1.63-1s-1.79-.38-1.82-.55.94-.51,2.07,0S201.17,446.75,201,446.8Z" style="fill:#263238"></path><path d="M202.24,451.58c-.12.13-.78-.34-1.72-.42s-1.67.2-1.76,0,.67-.78,1.83-.65S202.38,451.49,202.24,451.58Z" style="fill:#263238"></path><path d="M199.79,455.65c-.11-.11.47-.79,1.51-.94s1.8.32,1.72.46-.78,0-1.63.14S199.9,455.79,199.79,455.65Z" style="fill:#263238"></path><path d="M204.82,444c-.17,0-.41-.77-1-1.55s-1.27-1.25-1.2-1.41,1,.11,1.69,1S205,443.94,204.82,444Z" style="fill:#263238"></path><path d="M234.75,450.27,234,478.76l35.53,1.48c-.07-3.4-19.65-10.91-19.65-10.91l1-19.13Z" style="fill:#5852B8"></path><g style="opacity:0.6000000000000001"><path d="M240.43,467.28a1.45,1.45,0,0,0-1.07,1.61A1.39,1.39,0,0,0,241,470a1.52,1.52,0,0,0,1.13-1.71,1.45,1.45,0,0,0-1.78-.93" style="fill:#fff"></path></g><g style="opacity:0.6000000000000001"><path d="M234,478.76l.21-2.87,34,2.49s1.56.75,1.33,1.86Z" style="fill:#fff"></path></g><path d="M250.4,469.67c0,.17-.88.22-1.76.74s-1.36,1.23-1.52,1.15.15-1.06,1.22-1.67S250.45,469.51,250.4,469.67Z" style="fill:#263238"></path><path d="M255,471.48c0,.17-.73.43-1.35,1.14s-.82,1.47-1,1.46-.25-1,.54-1.87S255,471.31,255,471.48Z" style="fill:#263238"></path><path d="M256.86,475.85c-.16,0-.37-.85.12-1.78s1.31-1.27,1.37-1.13-.45.64-.84,1.41S257,475.84,256.86,475.85Z" style="fill:#263238"></path><path d="M250.32,464.91c-.08.15-.87-.12-1.85-.09s-1.76.3-1.84.15.67-.74,1.83-.76S250.41,464.77,250.32,464.91Z" style="fill:#263238"></path><path d="M287.3,300.8s-2.29,69.68-4.73,78.64c-1.54,5.66-3.52,13.62-4.77,18.71a12,12,0,0,1-5.67,7.54l-69.66,40-8.24-14.75s27-21.42,32.39-25.9,24.59-17.92,24.59-17.92l-4.18-50s-5-12.34-6-15.62c-3.86-12.64,7.42-28.81,7.42-28.81Z" style="fill:#263238"></path><path d="M241,292.1s-10.33,13.41-10.33,29.41,9.71,56.05,9.71,56.05-8.11,36.65-7.39,55c.71,18,1.35,32,1.35,32l17.11,2.25,13-92.47,9.06-74.25Z" style="fill:#263238"></path><path d="M229.33,402.92a2.83,2.83,0,0,1,.4-.33l1.19-.91,4.58-3.4,16.45-12-.1.19c-.22-4.21-.89-8.81-1.58-13.67s-1.51-10-2.38-15.3q-1-5.87-1.92-11.41c-.66-3.67-1.22-7.25-2-10.56s-2.48-6.16-3.66-9a24.75,24.75,0,0,1-2-8.29A36.91,36.91,0,0,1,239.55,306a22.18,22.18,0,0,1,1.13-3.15l.39-.78a1.11,1.11,0,0,1,.15-.26,2.65,2.65,0,0,1-.11.28c-.08.21-.2.47-.34.8a28,28,0,0,0-1,3.16,38.82,38.82,0,0,0-1,12.16,24.54,24.54,0,0,0,2,8.14c1.18,2.79,2.82,5.67,3.73,9s1.34,6.92,2,10.6,1.27,7.5,1.94,11.41c.86,5.31,1.67,10.45,2.36,15.32s1.32,9.46,1.53,13.73v.12l-.1.07L235.66,398.5,231,401.79c-.52.36-.93.64-1.23.86A2.79,2.79,0,0,1,229.33,402.92Z" style="fill:#455a64"></path><path d="M234.8,147.57A7.42,7.42,0,0,0,221.67,144a6.5,6.5,0,0,1-1.43,1.57,6,6,0,0,1-2.47.57,8.95,8.95,0,0,0-5.39,15,9.65,9.65,0,0,0-.9,16.39,6.24,6.24,0,0,0,4.31,9.59,4.34,4.34,0,0,1,2,.52c1.58,1.17.1,4,1.39,5.53,1,1.13,3.06.83,3.87,2.09.59.9.17,2.09.3,3.16.26,2.31,3,3.53,5.3,3.57,4.62.08,9-2.7,11.6-6.51s3.63-8.53,3.75-13.14c.26-10.85-4.13-21.2-8.44-31.16" style="fill:#263238"></path><path d="M238.83,150.09a2.9,2.9,0,1,0-4.66-3.43c-.24.37-.44.84-.86,1s-.81-.11-1.21-.25a2.93,2.93,0,0,0-3,.67,3,3,0,0,0-.65,3c-1.56-.26-3.48.4-3.86,1.94a2.91,2.91,0,0,0,2.14,3.19,6.36,6.36,0,0,0,4.12-.49,16.43,16.43,0,0,0,7.63-6.34" style="fill:#5852B8"></path><path d="M230,152.32c0,.09-.53,0-1-.38s-.6-.89-.52-.92.33.33.74.67S230.06,152.23,230,152.32Z" style="fill:#fff"></path><path d="M235,150.73c-.1,0-.21-.7-.62-1.44s-.94-1.23-.88-1.3.72.32,1.16,1.14A2.15,2.15,0,0,1,235,150.73Z" style="fill:#fff"></path><path d="M237.52,149.4c-.1,0-.09-.73-.45-1.51s-.9-1.26-.84-1.33.75.32,1.14,1.2A2,2,0,0,1,237.52,149.4Z" style="fill:#fff"></path><path d="M228.45,154.54c0,.05-.21.09-.56,0a2.42,2.42,0,0,1-1.21-.59,2.34,2.34,0,0,1-.7-1.14c-.09-.34-.06-.55,0-.56a5.26,5.26,0,0,0,.94,1.46A5.15,5.15,0,0,0,228.45,154.54Z" style="fill:#fff"></path><path d="M264.7,177.46a4.58,4.58,0,0,0,1.71-5.86,5.53,5.53,0,0,0-.76-8,3.89,3.89,0,0,0-3.87-6.08,5.26,5.26,0,0,0-7.29-5.48,4.81,4.81,0,0,0-8.37-2.8A6.93,6.93,0,0,0,236,151.35a6.5,6.5,0,0,0-8,4.78c-2.34-1.3-5.5.15-6.75,2.52s-1,5.27-.13,7.81a4.42,4.42,0,0,0,1.2,7.6,7.61,7.61,0,0,0,3.86,9.86,8.74,8.74,0,0,0,6.26,7.44" style="fill:#263238"></path><path d="M230.32,170l-1.84-2.83,18.42-7.78c5.79-1.9,13.48,2.65,15.13,8.52,1.84,6.52,3.82,14.54,4.1,19.64.56,10.25-7,11.94-7,11.94l3.46,16.8L239,214.81Z" style="fill:#ffbe9d"></path><path d="M261.1,175.46a1.3,1.3,0,0,1-1,1.54,1.23,1.23,0,0,1-1.55-.86,1.3,1.3,0,0,1,.94-1.55A1.24,1.24,0,0,1,261.1,175.46Z" style="fill:#263238"></path><path d="M260.84,172.58c-.12.2-1.24-.31-2.6,0s-2.23,1.2-2.41,1.06,0-.39.38-.8a3.53,3.53,0,0,1,4-.84C260.7,172.22,260.9,172.49,260.84,172.58Z" style="fill:#263238"></path><path d="M248.1,178.62a1.3,1.3,0,0,1-.95,1.55,1.25,1.25,0,0,1-1.56-.87,1.29,1.29,0,0,1,.95-1.54A1.24,1.24,0,0,1,248.1,178.62Z" style="fill:#263238"></path><path d="M247.14,175.77c-.12.2-1.24-.3-2.6,0s-2.22,1.19-2.41,1.06,0-.39.38-.81a3.56,3.56,0,0,1,1.88-1.05,3.44,3.44,0,0,1,2.12.21C247,175.41,247.21,175.68,247.14,175.77Z" style="fill:#263238"></path><path d="M254.6,184.8a9.69,9.69,0,0,1,2.13-.88c.34-.11.66-.25.67-.5a1.85,1.85,0,0,0-.46-1l-1.6-2.44c-2.25-3.48-4-6.37-3.82-6.46s2.08,2.66,4.33,6.14l1.56,2.46a2.09,2.09,0,0,1,.48,1.33.93.93,0,0,1-.47.64,2.89,2.89,0,0,1-.57.21A8.81,8.81,0,0,1,254.6,184.8Z" style="fill:#263238"></path><path d="M259.11,199.41a26.85,26.85,0,0,1-14.37-.64s4.84,6.22,14.9,3.11Z" style="fill:#eb996e"></path><path d="M244.92,168.76c0,.4-1.34.78-2.77,1.61s-2.48,1.75-2.81,1.53c-.16-.12-.09-.54.26-1.08a3.27,3.27,0,0,1,1.85-1.69,5.4,5.4,0,0,1,2.4-.7C244.5,168.41,244.9,168.57,244.92,168.76Z" style="fill:#263238"></path><path d="M259.75,168.31c-.19.36-1.19.19-2.34.36s-2.08.56-2.35.27c-.13-.14,0-.48.35-.85a3.33,3.33,0,0,1,1.81-.83,3.28,3.28,0,0,1,2,.33C259.65,167.84,259.83,168.14,259.75,168.31Z" style="fill:#263238"></path><path d="M238.58,161.28a5,5,0,0,0,1.67,1.84,1.72,1.72,0,0,0,2.24-.41,2.26,2.26,0,0,0,3.34-1.07,3.09,3.09,0,0,0,3.69-.53l3.09-.09c1.12,0,2.48-.21,2.91-1.24a1.49,1.49,0,0,1,.36-.68,1.44,1.44,0,0,1,.75-.18,2.59,2.59,0,0,0,1.95-1.58,7.84,7.84,0,0,0,.53-2.55c.12-1.34.07-3-1.14-3.59a3.24,3.24,0,0,0-1.55-.21,7.63,7.63,0,0,0-3.15.52,5.58,5.58,0,0,0-2.51,3,1.41,1.41,0,0,0-1.27-1.49,2.73,2.73,0,0,0-2,.69,5.59,5.59,0,0,0-1.82,2.52,4.57,4.57,0,0,0-3.37,3.41,3.3,3.3,0,0,0-2.63.16,1.22,1.22,0,0,0-.65.67c-.08.3.13.7.45.68" style="fill:#263238"></path><path d="M248.22,159.53a3.34,3.34,0,0,0,5.9,2.56A3.1,3.1,0,0,0,258,163.2a4.85,4.85,0,0,0,3.42,3.54,3.79,3.79,0,0,0,.59,2.7,2.33,2.33,0,0,0,1.44,1,2.65,2.65,0,0,0,2-.64,3.7,3.7,0,0,0,1.57-2.52,2.15,2.15,0,0,0-1.55-2.31,8,8,0,0,0,1.27-3.3,2.6,2.6,0,0,0-.31-2,1.14,1.14,0,0,0-1.75-.14,3,3,0,0,0-4.11-3.47,2.48,2.48,0,0,0-4.42-.79" style="fill:#263238"></path><path d="M236.18,161.32a2.53,2.53,0,0,0-2.81-1.82,6.2,6.2,0,0,0-3.23,1.68,4.35,4.35,0,0,0-5-.05c-1.43,1-2.07,2.8-3.11,4.22a8.86,8.86,0,0,0-1.53,2.33,1.82,1.82,0,0,0,.91,2.34,3.16,3.16,0,0,0,.43,5.53,1.84,1.84,0,0,1,.9.56,1.35,1.35,0,0,1,.12.87,34.81,34.81,0,0,0-.5,4.29,3.73,3.73,0,0,0,2.11,3.48,1.83,1.83,0,0,1,1,.5,1.16,1.16,0,0,1,.17.71,12.46,12.46,0,0,1-.46,2.42,3.41,3.41,0,0,0,.21,2.4,1.55,1.55,0,0,0,2.09.65,5.06,5.06,0,0,0,1.62,4.44c1.29,1,4.66.79,6.29-.84l-.94-4.55c-.45-.73-.25-5.26-1-6,0,0-.63,3.27,2.29,2,1.06,0,2.25-3.35,2.13-4.4a2.8,2.8,0,0,0-2-2.21,4.76,4.76,0,0,0-.24-6.1,2.54,2.54,0,0,0-.69-4.89,5.22,5.22,0,0,0,1.57-7.61" style="fill:#263238"></path><path d="M234.05,182.05c-.16,0-6.12-.91-5.11,4.9s6.64,3.6,6.62,3.44S234.05,182.05,234.05,182.05Z" style="fill:#ffbe9d"></path><path d="M233.4,188.49s-.09.09-.24.2a1,1,0,0,1-.76.14,2.53,2.53,0,0,1-1.55-2,3.58,3.58,0,0,1,0-1.5,1.2,1.2,0,0,1,.63-.91.52.52,0,0,1,.65.17c.1.15.09.27.12.28s.11-.12,0-.35a.74.74,0,0,0-.29-.33.79.79,0,0,0-.59-.05,1.45,1.45,0,0,0-.9,1.09,3.49,3.49,0,0,0-.07,1.68,2.67,2.67,0,0,0,1.91,2.25,1.07,1.07,0,0,0,.9-.31C233.42,188.63,233.42,188.5,233.4,188.49Z" style="fill:#eb996e"></path><path d="M251.14,187.65a2.09,2.09,0,0,1,1.62-.94,2.13,2.13,0,0,1,1.71.79,2,2,0,0,1,.37,1.51,1.77,1.77,0,0,1-3.36.41c-.31-.68-.74-1.47-.19-2" style="fill:#eb996e"></path><path d="M251,177.26a14.32,14.32,0,0,0-.66-1.47,6.51,6.51,0,0,0-6.13-3.25,6.5,6.5,0,0,0-3.18,1.14,5.91,5.91,0,0,0-1.34,1.26,6,6,0,0,0-.95,1.65,6.39,6.39,0,0,0-.24,4,6.49,6.49,0,0,0,2.16,3.33,6.16,6.16,0,0,0,1.65,1,6.46,6.46,0,0,0,8.83-6,12.9,12.9,0,0,0-.14-1.59,4.91,4.91,0,0,1,.27,1.59,6.52,6.52,0,0,1-1.35,4.17,6.72,6.72,0,0,1-2.38,1.94,6.64,6.64,0,0,1-3.47.63,5.92,5.92,0,0,1-1.87-.44,6.23,6.23,0,0,1-1.74-1,6.63,6.63,0,0,1-2-7.66,6.15,6.15,0,0,1,1-1.74,6.24,6.24,0,0,1,1.41-1.31,6.68,6.68,0,0,1,3.33-1.16,6.61,6.61,0,0,1,6.26,3.46A5.09,5.09,0,0,1,251,177.26Z" style="fill:#455a64"></path><path d="M266.84,173.06s-.16-.56-.66-1.46a6.55,6.55,0,0,0-3.21-2.8,6.29,6.29,0,0,0-2.92-.45,6.37,6.37,0,0,0-4.52,2.39,6.18,6.18,0,0,0-.95,1.66,6.33,6.33,0,0,0,1.93,7.29,5.64,5.64,0,0,0,1.65,1,6,6,0,0,0,1.78.44,6.57,6.57,0,0,0,3.33-.58,6.52,6.52,0,0,0,3.72-5.86,14.67,14.67,0,0,0-.15-1.6,5,5,0,0,1,.27,1.6,6.59,6.59,0,0,1-3.73,6.1,6.73,6.73,0,0,1-3.47.64A6.69,6.69,0,0,1,256.3,180a6.68,6.68,0,0,1-2-7.67,6.71,6.71,0,0,1,2.42-3,6.61,6.61,0,0,1,6.36-.66,6.48,6.48,0,0,1,3.23,3A5,5,0,0,1,266.84,173.06Z" style="fill:#455a64"></path><path d="M238.1,179.32a8.17,8.17,0,0,1-2.06,1.57,8.06,8.06,0,0,1-2.33,1.13,13.57,13.57,0,0,1,2.16-1.41A14.28,14.28,0,0,1,238.1,179.32Z" style="fill:#455a64"></path><path d="M254.41,174.48a11.68,11.68,0,0,0-2.13.43,10.76,10.76,0,0,0-1.87,1.09,3,3,0,0,1,1.75-1.4A3.06,3.06,0,0,1,254.41,174.48Z" style="fill:#455a64"></path><path d="M243.7,184.23a2.32,2.32,0,0,1-1.1-.13,5.08,5.08,0,0,1-2.3-1.39,5.23,5.23,0,0,1-1.26-2.38,2.21,2.21,0,0,1,0-1.11s.08.42.28,1.05a5.66,5.66,0,0,0,1.27,2.21,5.73,5.73,0,0,0,2.13,1.4A9.75,9.75,0,0,1,243.7,184.23Z" style="fill:#fff"></path><path d="M259.36,179.89a2,2,0,0,1-1-.14,5,5,0,0,1-2.14-1.33A4.83,4.83,0,0,1,255,176.2a2.06,2.06,0,0,1-.08-1,9.6,9.6,0,0,1,.3,1,5.73,5.73,0,0,0,1.23,2.06,5.54,5.54,0,0,0,2,1.33A9.53,9.53,0,0,1,259.36,179.89Z" style="fill:#fff"></path><path d="M250.23,186.05c-.1,0-.15.48.14,1.14A3.62,3.62,0,0,0,255.2,189c.66-.31.92-.7.85-.78s-.45.08-1.05.21a4.07,4.07,0,0,1-2.29-.12,4.19,4.19,0,0,1-1.82-1.39C250.52,186.4,250.36,186,250.23,186.05Z" style="fill:#263238"></path><path d="M228,156.13a1.63,1.63,0,0,0-.35-.12,4.4,4.4,0,0,0-1.05-.26,5.42,5.42,0,0,0-3.93.78,8.19,8.19,0,0,0-3.29,5.16,10.39,10.39,0,0,0-.06,3.78,6,6,0,0,0,.68,1.95,3.92,3.92,0,0,0,1.58,1.49l0-.35a4.72,4.72,0,0,0,.11,8l.34.19,0-.36a3.75,3.75,0,0,0-1.43,2.61,6.4,6.4,0,0,0,.35,2.86,23.74,23.74,0,0,0,2.77,4.55,10.51,10.51,0,0,1,1.12,2.15c.29.73.5,1.48.77,2.19a7.11,7.11,0,0,0,2.46,3.41,7.79,7.79,0,0,0,5.78,1.5,6.24,6.24,0,0,0,1.58-.46,3.25,3.25,0,0,0,.51-.26,9.76,9.76,0,0,1-2.11.55,7.74,7.74,0,0,1-5.58-1.57,6.88,6.88,0,0,1-2.31-3.29c-.25-.7-.46-1.45-.74-2.21A11.43,11.43,0,0,0,224,186.2a24.23,24.23,0,0,1-2.7-4.48,5.88,5.88,0,0,1-.32-2.67,3.29,3.29,0,0,1,1.26-2.32l.26-.19-.29-.17c-.1-.06-.21-.11-.31-.18a4.36,4.36,0,0,1-2.07-3.74,4.44,4.44,0,0,1,2-3.55l.3-.19-.32-.16a4.19,4.19,0,0,1-2.07-3.15,10.32,10.32,0,0,1,0-3.64,8,8,0,0,1,3.09-5,5.39,5.39,0,0,1,3.77-.86,6.12,6.12,0,0,1,1.05.19C227.83,156.12,228,156.15,228,156.13Z" style="fill:#455a64"></path><path d="M226,155.35a1.67,1.67,0,0,0-.45.59,4.45,4.45,0,0,0-.56,2,4.9,4.9,0,0,0,6.36,4.91l-.19,0a6.17,6.17,0,0,0,4.8,1,5.28,5.28,0,0,0,1.37-.48c.29-.16.44-.27.42-.29a11.75,11.75,0,0,1-1.83.51,6.12,6.12,0,0,1-4.51-1.07l-.08-.06-.11,0a4.43,4.43,0,0,1-2.35.08,4.61,4.61,0,0,1-2.82-1.88,4.72,4.72,0,0,1-.76-2.7A6,6,0,0,1,226,155.35Z" style="fill:#455a64"></path><path d="M221.59,157.34s-.06.06-.12.21a2.94,2.94,0,0,0-.24.66,6.15,6.15,0,0,0-.13,2.57,6.68,6.68,0,0,0,1.65,3.46,6.41,6.41,0,0,0,4.24,2,6.49,6.49,0,0,0,3.89-.94l-.26,0a4.81,4.81,0,0,0,2.9,1.51,4.53,4.53,0,0,0,3.88-1.42,1.61,1.61,0,0,0,.34-.49,6.48,6.48,0,0,1-1.79,1.26,4.39,4.39,0,0,1-2.38.31,4.5,4.5,0,0,1-2.65-1.44l-.11-.13-.15.09a6.27,6.27,0,0,1-3.64.85,6.05,6.05,0,0,1-4-1.81,6.39,6.39,0,0,1-1.64-3.23A7.59,7.59,0,0,1,221.59,157.34Z" style="fill:#455a64"></path><polygon points="349.56 175.99 293.46 216.1 280.09 224.57 274.96 202.79 301.72 188.22 342.54 166.9 349.56 175.99" style="fill:#5852B8"></polygon><path d="M260.46,206.34l1.66.87,13.24-4.64,6.81,23.27S288.73,239.55,287,250s-1.93,13.9-1.73,17.19,3.86,28,3.67,34.76c0,0-4.35,4.58-24.25.91s-28.78-6.35-28.78-6.35,6.24-28.39,5.6-32c-.83-4.75-9.8-27.11-11.93-31.48a88.22,88.22,0,0,1-3.88-9.76l4.16-6.4,8.09-4.94Z" style="fill:#5852B8"></path><path d="M230.38,217s-6.86,8-9.1,14.76-16.71,45.82-16.71,45.82l-13.48,33,10.71,4.12s19.71-33.74,22.41-39c2.29-4.46,11.69-30.14,11.69-30.14Z" style="fill:#5852B8"></path><path d="M259.07,209.42a5.36,5.36,0,0,1,1.87-1.76,25.26,25.26,0,0,1,5.65-2.53c2.26-.82,4.34-1.48,5.88-1.86a8.56,8.56,0,0,1,2.52-.44,21.61,21.61,0,0,1-2.42.79c-1.5.47-3.55,1.18-5.8,2a32.76,32.76,0,0,0-5.63,2.35C259.79,208.75,259.13,209.48,259.07,209.42Z" style="fill:#263238"></path><path d="M228.46,227.21a9.36,9.36,0,0,1,.56,1.45c.37,1,.84,2.37,1.41,4l4.74,13.13c1.86,5.13,3.52,9.78,4.65,13.17.57,1.7,1,3.08,1.3,4a8,8,0,0,1,.38,1.5,10.61,10.61,0,0,1-.58-1.44c-.37-1-.86-2.36-1.45-4-1.25-3.45-2.93-8-4.79-13.12s-3.49-9.79-4.6-13.19c-.55-1.7-1-3.09-1.25-4.05A9.82,9.82,0,0,1,228.46,227.21Z" style="fill:#263238"></path><path d="M276.39,228.21a14.2,14.2,0,0,1,2.8-2.66,14.59,14.59,0,0,1,3.13-2.26,14.2,14.2,0,0,1-2.8,2.66A14.59,14.59,0,0,1,276.39,228.21Z" style="fill:#263238"></path><path d="M261.39,207l-.93-3.76s-23.83,4.31-23.74,4.77,1.22,5.68,1.22,5.68l13.09-2Z" style="fill:#5852B8"></path><g style="opacity:0.30000000000000004"><path d="M229.2,229.54a24.6,24.6,0,0,0,5.57,17C233.58,240.85,231.12,234.84,229.2,229.54Z"></path></g><path d="M271.67,203a3.1,3.1,0,0,1-.45.39l-1.31,1.05c-1.14.92-2.77,2.26-4.67,4a71.33,71.33,0,0,0-6.27,6.68c-1.1,1.33-2.19,2.77-3.31,4.28a41.64,41.64,0,0,1-3.73,4.51,12.77,12.77,0,0,1-4.91,3.27,10.08,10.08,0,0,1-5.49.13c-3.43-.81-6.18-2.37-8.7-2.95a10.75,10.75,0,0,0-6-.07,10.19,10.19,0,0,0-2,1s.14-.15.44-.39a6.32,6.32,0,0,1,1.5-.81,10.55,10.55,0,0,1,6.18-.1c2.6.56,5.39,2.09,8.72,2.85a9.71,9.71,0,0,0,5.23-.16,12.31,12.31,0,0,0,4.7-3.14c2.75-2.83,4.76-6.12,7.05-8.74a67.91,67.91,0,0,1,6.38-6.64,61.07,61.07,0,0,1,4.79-3.94c.59-.44,1.06-.76,1.38-1A2.18,2.18,0,0,1,271.67,203Z" style="fill:#fff"></path><path d="M285.65,245.31s-.14.11-.43.26l-1.28.63c-1.12.55-2.77,1.26-4.83,2.07s-4.57,1.66-7.39,2.48-6,1.54-9.32,2.12-6.56.89-9.49,1.08-5.57.18-7.79.09-4-.21-5.24-.36l-1.42-.17a1.58,1.58,0,0,1-.49-.09,1.73,1.73,0,0,1,.5,0l1.42.07c1.24.09,3,.16,5.24.19s4.84,0,7.75-.2,6.11-.56,9.44-1.12,6.45-1.3,9.27-2.06,5.32-1.6,7.39-2.37,3.74-1.42,4.87-1.91l1.32-.54A2.31,2.31,0,0,1,285.65,245.31Z" style="fill:#fff"></path><path d="M285.75,284.32s-.09.15-.3.4a9.59,9.59,0,0,1-1,1,12.31,12.31,0,0,1-4.77,2.49,19.16,19.16,0,0,1-8,.44,40.48,40.48,0,0,1-9.34-2.84c-3.2-1.3-6.21-2.63-9.07-3.46a25.91,25.91,0,0,0-7.76-1.15,15.93,15.93,0,0,0-5.2,1c-1.17.44-1.77.82-1.8.76a2.25,2.25,0,0,1,.43-.28,9.27,9.27,0,0,1,1.3-.67,14.91,14.91,0,0,1,5.26-1.14,25.33,25.33,0,0,1,7.91,1.06,91.29,91.29,0,0,1,9.12,3.44,41.75,41.75,0,0,0,9.22,2.85,19.44,19.44,0,0,0,7.8-.32,13.14,13.14,0,0,0,4.73-2.29C285.27,284.83,285.7,284.27,285.75,284.32Z" style="fill:#fff"></path><path d="M296.2,191.09a1.68,1.68,0,0,1,.19.89,6,6,0,0,1-.54,2.42,13.73,13.73,0,0,0-1.12,3.37,10.64,10.64,0,0,0,.44,4.29c.86,3,2,5.67,2.11,7.8a9.59,9.59,0,0,1,0,1.42,8.8,8.8,0,0,1-.19,1.05c-.18.56-.29.86-.33.84a11.27,11.27,0,0,0,.15-3.27c-.18-2-1.36-4.65-2.24-7.71a10.62,10.62,0,0,1-.42-4.49,13.22,13.22,0,0,1,1.26-3.45,6.64,6.64,0,0,0,.68-2.28C296.23,191.41,296.15,191.1,296.2,191.09Z" style="fill:#fff"></path><path d="M322.75,195.51a59.92,59.92,0,0,0-3.66-7.53,60,60,0,0,0-5.14-6.61,8.79,8.79,0,0,1,1.88,1.62,27.79,27.79,0,0,1,6.3,10.12A8.88,8.88,0,0,1,322.75,195.51Z" style="fill:#fff"></path><path d="M228.18,267a5.39,5.39,0,0,0-1.63-2.34,7.41,7.41,0,0,0-2.79-1.34,19.47,19.47,0,0,0-3.85-.42,16.9,16.9,0,0,1-3.94-.52,7.12,7.12,0,0,1-2.86-1.6,4.17,4.17,0,0,1-1.19-1.87,1.5,1.5,0,0,1-.09-.8,5.27,5.27,0,0,0,1.52,2.39,7.13,7.13,0,0,0,2.75,1.42,18.53,18.53,0,0,0,3.84.46,18.26,18.26,0,0,1,3.95.48,7.31,7.31,0,0,1,2.9,1.52,4.4,4.4,0,0,1,1.26,1.82A1.75,1.75,0,0,1,228.18,267Z" style="fill:#fff"></path><path d="M201.26,314.46,200.12,327l-.14.54c-.18,1.13-.72,3-1.51,3.62a1.13,1.13,0,0,1-1.2.27c-1-.54-1-3-1-3l-.42,2.44a1.26,1.26,0,0,1-2,.81c-.07-.05-1.24-1.07-1.31-1.13-.26-.23-1.85.31-2.12-1.13a27.16,27.16,0,0,0-1-3.42,3,3,0,0,1-1.89-2.57c-.09-1.94,0-4.64,0-4.64s-.9,2.88-2,2.7L184.39,318l.81-1.53,6.57-5.77Z" style="fill:#ffbe9d"></path><path d="M192.4,325.55a24.13,24.13,0,0,1,0,2.53,21.42,21.42,0,0,1,.22,2.53,5.36,5.36,0,0,1-.21-5.06Z" style="fill:#eb996e"></path><path d="M189.49,323.71c.15,0,.19.62.23,1.36s.07,1.34-.07,1.37-.41-.56-.45-1.35S189.36,323.69,189.49,323.71Z" style="fill:#eb996e"></path><path d="M200.38,329.17a25.42,25.42,0,0,1-2.74,3.29l-.08.09-.13,0a8.05,8.05,0,0,0-3.1,0,2.63,2.63,0,0,0-1.79,1.4l-.15-.33c2.7.93,4.73,1.23,4.72,1.36a4.3,4.3,0,0,1-1.4-.08,22.47,22.47,0,0,1-3.47-.81l-.25-.08.1-.25a3.06,3.06,0,0,1,2.1-1.71,7.77,7.77,0,0,1,3.32.09l-.21.07A24.48,24.48,0,0,1,200.38,329.17Z" style="fill:#995037"></path><path d="M192.87,333.06a11.85,11.85,0,0,1-1.69-.83,5.07,5.07,0,0,0-1.87-.54,2.87,2.87,0,0,0-2.13.66,2.69,2.69,0,0,0-.35.42l-.09-.36a34.65,34.65,0,0,1,4.92,3.12,35.38,35.38,0,0,1-5.18-2.67l-.23-.13.14-.22a2.76,2.76,0,0,1,.43-.54,3.29,3.29,0,0,1,2.53-.76,5,5,0,0,1,2,.69A4.89,4.89,0,0,1,192.87,333.06Z" style="fill:#995037"></path><path d="M189.07,314.58a5.49,5.49,0,0,1-.49,2.34,5.64,5.64,0,0,1-1,2.17,5.44,5.44,0,0,1,.5-2.33A5.69,5.69,0,0,1,189.07,314.58Z" style="fill:#eb996e"></path><path d="M230,430c-.07-.13,9.49-5.81,21.35-12.7s21.54-12.37,21.61-12.25-9.48,5.81-21.35,12.7S230,430.08,230,430Z" style="fill:#455a64"></path><path d="M213.5,292.7a9.53,9.53,0,0,1-2-.53,33,33,0,0,1-4.77-1.76,9.91,9.91,0,0,1-2.32-1.64,9.29,9.29,0,0,1-1.42-1.83,5.78,5.78,0,0,1-.81-2,15.23,15.23,0,0,1,1.12,1.76,9.38,9.38,0,0,0,3.67,3.2c1.73.87,3.45,1.39,4.65,1.88A8.21,8.21,0,0,1,213.5,292.7Z" style="fill:#fff"></path></g></svg>